<svg xmlns="http://www.w3.org/2000/svg" xmlns:xlink="http://www.w3.org/1999/xlink" width="994.5" height="1390.021" viewBox="0 0 994.5 1390.021">
  <defs>
    <linearGradient id="linear-gradient" x1="0.5" x2="0.5" y2="1" gradientUnits="objectBoundingBox">
      <stop offset="0" stop-color="#caa32d"/>
      <stop offset="1" stop-color="#f3bc18"/>
    </linearGradient>
    <linearGradient id="linear-gradient-12" y1="0.078" x2="1.017" y2="0.907" gradientUnits="objectBoundingBox">
      <stop offset="0"/>
      <stop offset="1" stop-color="#545454"/>
    </linearGradient>
    <clipPath id="clip-path">
      <path id="path1635" d="M0-682.665H120v120H0Z" transform="translate(0 682.665)" fill="#c6c6c8"/>
    </clipPath>
    <linearGradient id="linear-gradient-13" x1="-0.026" y1="0.202" x2="1" y2="0.925" gradientUnits="objectBoundingBox">
      <stop offset="0" stop-color="#034971"/>
      <stop offset="1" stop-color="#0071bc"/>
    </linearGradient>
    <linearGradient id="linear-gradient-14" x1="0.5" y1="0" x2="0.5" y2="1" xlink:href="#linear-gradient-12"/>
    <linearGradient id="linear-gradient-20" x1="0" y1="0" x2="1.017" y2="1" xlink:href="#linear-gradient-13"/>
  </defs>
  <g id="Group_42255" data-name="Group 42255" transform="translate(-545 -5307.749)">
    <path id="Path_794" data-name="Path 794" d="M-198.648,625.008c-53.3,0-96.5-43.805-96.5-97.842s43.2-97.842,96.5-97.842" transform="translate(1006.148 5935.664)" fill="none" stroke="#000" stroke-width="1"/>
    <path id="Path_754" data-name="Path 754" d="M683.357,539.775a58.687,58.687,0,1,1,58.688,58.686H684.186" transform="translate(198.693 5962.222)" fill="none" stroke="#1a1818" stroke-miterlimit="10" stroke-width="0.525" stroke-dasharray="6.294"/>
    <g id="Group_1346" data-name="Group 1346" transform="translate(481.202 5625.576)">
      <path id="Path_768" data-name="Path 768" d="M249.379,194.213c20.2-24.083,47.225-38.8,76.915-38.8H561.48" fill="none" stroke="#1a1818" stroke-miterlimit="10" stroke-width="1"/>
      <path id="Path_769" data-name="Path 769" d="M326.294,395.026c-36.978,0-69.818-22.829-90.5-58.148" transform="translate(0 52.386)" fill="none" stroke="#1a1818" stroke-miterlimit="10" stroke-width="1"/>
    </g>
    <path id="Path_735" data-name="Path 735" d="M402.5,163.571" transform="translate(325.706 5252.417)" fill="none" stroke="#1a1818" stroke-miterlimit="10" stroke-width="1"/>
    <path id="Path_761" data-name="Path 761" d="M402.5,163.571" transform="translate(442.706 5544.417)" fill="none" stroke="#1a1818" stroke-miterlimit="10" stroke-width="1"/>
    <text id="Our_research_and_agile-led_methodology_of_developing_a_mobile_app_solution_not_only_limit_to_solving_the_problem." data-name="Our research and agile-led methodology of developing
a mobile app solution not only limit to solving the problem." transform="translate(751.929 5397.596)" fill="#1a1818" font-size="18" font-family="Inter-Regular, Inter"><tspan x="0" y="0">Our research and agile-led methodology of developing</tspan><tspan x="0" y="21.6">a mobile app solution not only limit to solving the problem.</tspan></text>
    <g id="creativity" transform="translate(596.996 5307.748)">
      <path id="Path_749" data-name="Path 749" d="M108.332,57.242A11.741,11.741,0,0,0,100.7,68.206a11.609,11.609,0,0,0,1.347,5.347,9.358,9.358,0,0,0,0,17.506A11.608,11.608,0,0,0,100.7,96.4a11.738,11.738,0,0,0,7.628,10.964,9.27,9.27,0,0,0-.578,3.135,9.336,9.336,0,0,0,12.713,8.767A9.376,9.376,0,0,0,138.3,115.2v-65.8a9.376,9.376,0,0,0-17.835-4.068,9.313,9.313,0,0,0-12.135,11.9Zm8.821-7.834a4.7,4.7,0,0,1,4.7,4.7h4.7a9.309,9.309,0,0,0-2.166-5.929,4.688,4.688,0,0,1,9.216,1.229v65.8a4.688,4.688,0,0,1-9.216,1.229,9.306,9.306,0,0,0,2.166-5.929h-4.7a4.7,4.7,0,1,1-4.7-4.7v-4.7a9.31,9.31,0,0,0-5.992,2.219A7.044,7.044,0,1,1,119.5,96.4h4.7a11.762,11.762,0,0,0-11.749-11.749,11.625,11.625,0,0,0-7.05,2.412V87a4.7,4.7,0,1,1,0-9.4v-.061a11.624,11.624,0,0,0,7.05,2.411A11.762,11.762,0,0,0,124.2,68.206h-4.7a7.05,7.05,0,1,1-8.342-6.918,9.309,9.309,0,0,0,5.992,2.218v-4.7a4.7,4.7,0,0,1,0-9.4Zm0,0" transform="translate(-67.802 -28.255)" fill="#c6c6c8"/>
      <path id="Path_750" data-name="Path 750" d="M277.153,44.708a9.348,9.348,0,0,0-3.312.632A9.377,9.377,0,0,0,256,49.407v65.8a9.377,9.377,0,0,0,17.836,4.068,9.335,9.335,0,0,0,12.712-8.767,9.242,9.242,0,0,0-.578-3.135A11.738,11.738,0,0,0,293.6,96.4a11.608,11.608,0,0,0-1.346-5.346,9.359,9.359,0,0,0,0-17.506,11.609,11.609,0,0,0,1.346-5.347,11.74,11.74,0,0,0-7.628-10.964,9.237,9.237,0,0,0,.578-3.135,9.409,9.409,0,0,0-9.4-9.4Zm11.749,23.5a7.05,7.05,0,1,1-14.1,0h-4.7a11.762,11.762,0,0,0,11.749,11.749,11.624,11.624,0,0,0,7.05-2.411v.061a4.7,4.7,0,1,1,0,9.4v.062a11.625,11.625,0,0,0-7.05-2.412A11.763,11.763,0,0,0,270.1,96.4h4.7a7.05,7.05,0,1,1,8.343,6.919,9.316,9.316,0,0,0-5.993-2.219v4.7a4.7,4.7,0,1,1-4.7,4.7h-4.7a9.307,9.307,0,0,0,2.166,5.929A4.688,4.688,0,0,1,260.7,115.2v-65.8a4.688,4.688,0,0,1,9.216-1.229,9.309,9.309,0,0,0-2.166,5.929h4.7a4.7,4.7,0,1,1,4.7,4.7v4.7a9.314,9.314,0,0,0,5.993-2.218,7.05,7.05,0,0,1,5.757,6.918Zm0,0" transform="translate(-180.805 -28.256)" fill="#c6c6c8"/>
      <path id="Path_751" data-name="Path 751" d="M155.057,14.658A53.6,53.6,0,0,0,114.6.112l.291,4.689a49.342,49.342,0,0,1,30.392,90.39,29.05,29.05,0,0,0-10.618,12.9H101.342a29.527,29.527,0,0,0-10.671-13A49.127,49.127,0,0,1,68.733,52.475l-4.7-.146A53.793,53.793,0,0,0,88.061,99a24.76,24.76,0,0,1,8.128,9.1H89.856v4.7h8.208a27.118,27.118,0,0,1,1.005,4.7H94.555v4.7h4.7v7.05a2.349,2.349,0,0,0,2.35,2.35h2.35a14.1,14.1,0,0,0,28.2,0h2.35a2.348,2.348,0,0,0,2.35-2.35V122.2h4.7v-4.7h-4.535a26.2,26.2,0,0,1,.944-4.7h8.29v-4.7h-6.436a24.23,24.23,0,0,1,8.067-8.985,54.038,54.038,0,0,0,7.174-84.454Zm-37,126.337a9.409,9.409,0,0,1-9.4-9.4h18.8A9.409,9.409,0,0,1,118.054,140.994Zm14.1-14.1h-28.2v-4.7h28.2Zm.168-9.4H103.767a32,32,0,0,0-.8-4.7h30.081a31.223,31.223,0,0,0-.731,4.7Zm0,0" transform="translate(-45.205 0)" fill="#c6c6c8"/>
      <path id="Path_752" data-name="Path 752" d="M50.354,16.457a9.409,9.409,0,0,1,9.4,9.4,2.35,2.35,0,0,0,4.7,0,9.409,9.409,0,0,1,9.4-9.4,2.35,2.35,0,0,0,0-4.7,9.409,9.409,0,0,1-9.4-9.4,2.35,2.35,0,1,0-4.7,0,9.409,9.409,0,0,1-9.4,9.4,2.35,2.35,0,0,0,0,4.7ZM62.1,10.143a14.221,14.221,0,0,0,3.964,3.964A14.237,14.237,0,0,0,62.1,18.071a14.221,14.221,0,0,0-3.964-3.964A14.206,14.206,0,0,0,62.1,10.143Zm0,0" transform="translate(-33.901 -0.005)" fill="#c6c6c8"/>
      <path id="Path_753" data-name="Path 753" d="M25.852,96.457a2.35,2.35,0,1,0,0-4.7,9.409,9.409,0,0,1-9.4-9.4,2.35,2.35,0,1,0-4.7,0,9.409,9.409,0,0,1-9.4,9.4,2.35,2.35,0,1,0,0,4.7,9.409,9.409,0,0,1,9.4,9.4,2.35,2.35,0,1,0,4.7,0A9.409,9.409,0,0,1,25.852,96.457ZM14.1,98.071a14.221,14.221,0,0,0-3.964-3.964A14.237,14.237,0,0,0,14.1,90.143a14.252,14.252,0,0,0,3.964,3.964A14.237,14.237,0,0,0,14.1,98.071Zm0,0" transform="translate(0 -56.506)" fill="#c6c6c8"/>
    </g>
    <text id="Our_research_and_agile-led_methodology_of_developing_a_mobile_app_solution_not_only_limit_to_solving_the_problem.-2" data-name="Our research and agile-led methodology of developing
a mobile app solution not only limit to solving the problem." transform="translate(751.929 5964.389)" fill="#1a1818" font-size="18" font-family="Inter-Regular, Inter"><tspan x="0" y="0">Our research and agile-led methodology of developing</tspan><tspan x="0" y="21.6">a mobile app solution not only limit to solving the problem.</tspan></text>
    <text id="Step_1" data-name="Step 1" transform="translate(545 5501.988)" fill="#707070" font-size="35" font-family="Inter-Bold, Inter" font-weight="700"><tspan x="0" y="0">Step 1</tspan></text>
    <text id="Step_3" data-name="Step 3" transform="translate(545 6018.988)" fill="#707070" font-size="35" font-family="Inter-Bold, Inter" font-weight="700"><tspan x="0" y="0">Step 3</tspan></text>
    <text id="Step_2" data-name="Step 2" transform="translate(1427.5 5647.988)" fill="#707070" font-size="35" font-family="Inter-Bold, Inter" font-weight="700"><tspan x="0" y="0">Step 2</tspan></text>
    <text id="Step_4" data-name="Step 4" transform="translate(1427.5 6244)" fill="#707070" font-size="35" font-family="Inter-Bold, Inter" font-weight="700"><tspan x="0" y="0">Step 4</tspan></text>
    <path id="Path_762" data-name="Path 762" d="M497.587,163.571H1086.3a146,146,0,0,1,0,292H864.942" transform="translate(176.913 5325.417)" fill="none" stroke="#1a1818" stroke-miterlimit="10" stroke-width="1"/>
    <path id="Path_770" data-name="Path 770" d="M629.587,163.571H1086.3a146,146,0,0,1,0,292H629.942" transform="translate(177.413 5909.417)" fill="none" stroke="#1a1818" stroke-miterlimit="10" stroke-width="1"/>
    <path id="Polygon_1" data-name="Polygon 1" d="M6,0l6,10H0Z" transform="translate(1277.877 5483.856) rotate(99)" fill="url(#linear-gradient)"/>
    <path id="Polygon_7" data-name="Polygon 7" d="M6,0l6,10H0Z" transform="translate(1257.896 5786.912) rotate(-89)" fill="url(#linear-gradient)"/>
    <path id="Polygon_10" data-name="Polygon 10" d="M6,0l6,10H0Z" transform="translate(1257.896 6370.899) rotate(-89)" fill="url(#linear-gradient)"/>
    <circle id="Ellipse_7" data-name="Ellipse 7" cx="12" cy="12" r="12" transform="matrix(0.259, 0.966, -0.966, 0.259, 723.485, 5991.303)" fill="#034971"/>
    <path id="Polygon_2" data-name="Polygon 2" d="M6,0l6,10H0Z" transform="translate(722.664 6011.084) rotate(164)" fill="url(#linear-gradient)"/>
    <path id="Polygon_4" data-name="Polygon 4" d="M6,0l6,10H0Z" transform="translate(984 5483) rotate(90)" fill="url(#linear-gradient)"/>
    <path id="Polygon_9" data-name="Polygon 9" d="M6,0l6,10H0Z" transform="translate(1241 6067) rotate(90)" fill="url(#linear-gradient)"/>
    <path id="Polygon_6" data-name="Polygon 6" d="M6,0l6,10H0Z" transform="translate(891 5787) rotate(-90)" fill="url(#linear-gradient)"/>
    <path id="Polygon_11" data-name="Polygon 11" d="M6,0l6,10H0Z" transform="translate(891 6370.988) rotate(-90)" fill="url(#linear-gradient)"/>
    <path id="Polygon_8" data-name="Polygon 8" d="M6,0l6,10H0Z" transform="translate(901 6067) rotate(90)" fill="url(#linear-gradient)"/>
    <g id="Group_1347" data-name="Group 1347" transform="translate(82 -497)">
      <circle id="Ellipse_8" data-name="Ellipse 8" cx="12" cy="12" r="12" transform="translate(1315 6120)" fill="#034971"/>
      <path id="Polygon_3" data-name="Polygon 3" d="M6,0l6,10H0Z" transform="translate(1333 6138) rotate(180)" fill="url(#linear-gradient)"/>
    </g>
    <g id="Group_1348" data-name="Group 1348" transform="translate(82 99)">
      <circle id="Ellipse_8-2" data-name="Ellipse 8" cx="12" cy="12" r="12" transform="translate(1315 6120)" fill="#034971"/>
      <path id="Polygon_3-2" data-name="Polygon 3" d="M6,0l6,10H0Z" transform="translate(1333 6138) rotate(180)" fill="url(#linear-gradient)"/>
    </g>
    <path id="Path_764" data-name="Path 764" d="M7.594-25.455V0H2.212V-25.455ZM24.9,0H15.881V-25.455h9.1a13.537,13.537,0,0,1,6.612,1.523,10.389,10.389,0,0,1,4.269,4.369,14.45,14.45,0,0,1,1.5,6.811,14.554,14.554,0,0,1-1.5,6.836,10.382,10.382,0,0,1-4.288,4.387A13.683,13.683,0,0,1,24.9,0ZM21.263-4.611h3.418A8.628,8.628,0,0,0,28.7-5.463,5.442,5.442,0,0,0,31.163-8.11a11.169,11.169,0,0,0,.827-4.642,11.053,11.053,0,0,0-.827-4.611A5.422,5.422,0,0,0,28.708-20a8.642,8.642,0,0,0-4.015-.845h-3.43ZM45.186,0V-25.455H62.338v4.437H50.568v6.065H61.455v4.437H50.568v6.078h11.82V0ZM74.863,0H69.1l8.787-25.455h6.935L93.594,0H87.827L81.451-19.638h-.2ZM74.5-10.005H88.125v4.2H74.5Z" transform="translate(749.717 5355.118)" fill="url(#linear-gradient-12)"/>
    <path id="Path_767" data-name="Path 767" d="M16.021-18.134a3.145,3.145,0,0,0-1.28-2.337,5.073,5.073,0,0,0-3.07-.833,5.952,5.952,0,0,0-2.225.367A3.129,3.129,0,0,0,8.06-19.924a2.4,2.4,0,0,0-.479,1.467,2.065,2.065,0,0,0,.292,1.193,2.85,2.85,0,0,0,.876.876,6.258,6.258,0,0,0,1.293.634,12.633,12.633,0,0,0,1.566.454l2.287.547a16.131,16.131,0,0,1,3.058.994,9.288,9.288,0,0,1,2.411,1.529,6.428,6.428,0,0,1,1.585,2.138,6.817,6.817,0,0,1,.578,2.821A7.035,7.035,0,0,1,20.34-3.225,7.563,7.563,0,0,1,16.959-.578,13.544,13.544,0,0,1,11.646.36,13.955,13.955,0,0,1,6.283-.584a7.805,7.805,0,0,1-3.555-2.8,8.3,8.3,0,0,1-1.336-4.6H6.6a3.847,3.847,0,0,0,.74,2.132A3.965,3.965,0,0,0,9.092-4.58a6.819,6.819,0,0,0,2.492.429,6.5,6.5,0,0,0,2.38-.4,3.643,3.643,0,0,0,1.572-1.106A2.554,2.554,0,0,0,16.1-7.283a2.131,2.131,0,0,0-.5-1.442,3.93,3.93,0,0,0-1.467-.994,15.151,15.151,0,0,0-2.355-.746L9-11.161A11.622,11.622,0,0,1,3.915-13.61,5.68,5.68,0,0,1,2.063-18.1,6.648,6.648,0,0,1,3.3-22.136a8.255,8.255,0,0,1,3.437-2.7,12.152,12.152,0,0,1,4.972-.969,11.8,11.8,0,0,1,4.953.969,7.832,7.832,0,0,1,3.3,2.7,7.136,7.136,0,0,1,1.218,4Zm11.991-2.884v-4.437H48.917v4.437H41.125V0H35.8V-21.017ZM56.223,0V-25.455H66.265a10.892,10.892,0,0,1,4.928,1.025,7.241,7.241,0,0,1,3.12,2.9,8.665,8.665,0,0,1,1.075,4.394,8.305,8.305,0,0,1-1.094,4.356,7.086,7.086,0,0,1-3.163,2.79,11.724,11.724,0,0,1-5,.969H59.4v-4.325h5.854a6.722,6.722,0,0,0,2.56-.423,3.076,3.076,0,0,0,1.523-1.268,4.044,4.044,0,0,0,.5-2.1,4.207,4.207,0,0,0-.5-2.138A3.194,3.194,0,0,0,67.813-20.6a6.392,6.392,0,0,0-2.579-.454H61.6V0ZM69.969-11.584,76.3,0H70.354l-6.19-11.584ZM87.429,0H81.662l8.787-25.455h6.935L106.159,0h-5.767L94.016-19.638h-.2Zm-.36-10.005h13.622v4.2H87.068Zm21.9-11.012v-4.437h20.906v4.437h-7.793V0h-5.32V-21.017ZM137.176,0V-25.455h17.152v4.437h-11.77v6.065h10.888v4.437H142.558v6.078h11.82V0Zm42.169-17.227a5.671,5.671,0,0,0-.733-1.61,4.7,4.7,0,0,0-1.15-1.193,5.132,5.132,0,0,0-1.541-.752,6.577,6.577,0,0,0-1.908-.261,6.085,6.085,0,0,0-3.424.969,6.347,6.347,0,0,0-2.293,2.815,11.069,11.069,0,0,0-.82,4.506,11.356,11.356,0,0,0,.808,4.524,6.282,6.282,0,0,0,2.287,2.84,6.2,6.2,0,0,0,3.493.976,6.9,6.9,0,0,0,3.126-.653,4.641,4.641,0,0,0,1.989-1.846,5.54,5.54,0,0,0,.69-2.821l1.094.162H174.4v-4.052H185.05v3.207a11.153,11.153,0,0,1-1.417,5.761,9.6,9.6,0,0,1-3.9,3.7,12.112,12.112,0,0,1-5.692,1.3,12.228,12.228,0,0,1-6.289-1.585,10.865,10.865,0,0,1-4.22-4.512,14.987,14.987,0,0,1-1.51-6.954,15.816,15.816,0,0,1,.9-5.525,11.729,11.729,0,0,1,2.529-4.12,10.956,10.956,0,0,1,3.791-2.573,12.284,12.284,0,0,1,4.686-.882,12.544,12.544,0,0,1,4.027.628,10.911,10.911,0,0,1,3.312,1.771,9.631,9.631,0,0,1,2.368,2.716,9.3,9.3,0,0,1,1.181,3.461Zm11.071-8.228h6.028l5.8,10.962h.249l5.8-10.962h6.028L205.045-9V0H199.7V-9ZM240.785.373a10.177,10.177,0,0,1-4.549-.945A7.086,7.086,0,0,1,233.3-3.138a6.64,6.64,0,0,1-1.025-3.623,5.69,5.69,0,0,1,.6-2.647,7.628,7.628,0,0,1,1.665-2.132,22.7,22.7,0,0,1,2.486-1.945l4.934-3.244a4.612,4.612,0,0,0,1.4-1.286,2.62,2.62,0,0,0,.447-1.473,2.014,2.014,0,0,0-.609-1.4,2.223,2.223,0,0,0-1.728-.634,2.458,2.458,0,0,0-1.293.329,2.378,2.378,0,0,0-.851.858,2.309,2.309,0,0,0-.3,1.175,3.357,3.357,0,0,0,.447,1.616,11.468,11.468,0,0,0,1.193,1.734q.746.914,1.628,1.97L254.357,0h-5.518L238.771-11.211q-.994-1.131-1.982-2.368a13.274,13.274,0,0,1-1.647-2.635,7.04,7.04,0,0,1-.659-3.039,6.482,6.482,0,0,1,.864-3.331,6.239,6.239,0,0,1,2.43-2.343,7.446,7.446,0,0,1,3.654-.864,7.135,7.135,0,0,1,3.524.827,5.937,5.937,0,0,1,2.287,2.188,5.782,5.782,0,0,1,.8,2.989,6.153,6.153,0,0,1-.889,3.263,9.051,9.051,0,0,1-2.492,2.616l-5.2,3.741a5.928,5.928,0,0,0-1.56,1.572,2.9,2.9,0,0,0-.5,1.535,3.024,3.024,0,0,0,.447,1.628,3.107,3.107,0,0,0,1.268,1.137,4.2,4.2,0,0,0,1.926.416,6.192,6.192,0,0,0,2.654-.615,7.886,7.886,0,0,0,2.386-1.752,8.745,8.745,0,0,0,1.721-2.7,9.007,9.007,0,0,0,.646-3.468h4.387a16.016,16.016,0,0,1-.51,4.207,11.35,11.35,0,0,1-1.417,3.256,8.936,8.936,0,0,1-2.076,2.268q-.373.236-.721.447t-.721.447a9.005,9.005,0,0,1-3.163,1.653A12.269,12.269,0,0,1,240.785.373ZM2.212,40.274V14.819H12.255a10.263,10.263,0,0,1,4.934,1.1A7.581,7.581,0,0,1,20.3,18.964a9.11,9.11,0,0,1,1.075,4.481,8.95,8.95,0,0,1-1.094,4.474,7.551,7.551,0,0,1-3.163,3.02,10.686,10.686,0,0,1-5,1.081h-6.4V27.708h5.531a5.418,5.418,0,0,0,2.567-.541,3.543,3.543,0,0,0,1.516-1.5,5.141,5.141,0,0,0,0-4.437,3.482,3.482,0,0,0-1.523-1.479,5.6,5.6,0,0,0-2.585-.528H7.594V40.274Zm26.52,0V14.819H38.775A10.892,10.892,0,0,1,43.7,15.844a7.241,7.241,0,0,1,3.12,2.9A8.665,8.665,0,0,1,47.9,23.134,8.305,8.305,0,0,1,46.8,27.49a7.087,7.087,0,0,1-3.163,2.79,11.724,11.724,0,0,1-5,.969H31.915V26.925h5.854a6.722,6.722,0,0,0,2.56-.423,3.076,3.076,0,0,0,1.523-1.268,4.044,4.044,0,0,0,.5-2.1,4.207,4.207,0,0,0-.5-2.138,3.194,3.194,0,0,0-1.529-1.324,6.392,6.392,0,0,0-2.579-.454H34.115V40.274ZM42.479,28.69l6.326,11.584H42.865L36.675,28.69Zm36.464-1.143a14.769,14.769,0,0,1-1.572,7.085A10.957,10.957,0,0,1,73.1,39.087a12.79,12.79,0,0,1-12.162-.006,10.971,10.971,0,0,1-4.263-4.462A14.789,14.789,0,0,1,55.1,27.546a14.817,14.817,0,0,1,1.566-7.085,10.929,10.929,0,0,1,4.263-4.456,12.812,12.812,0,0,1,12.162,0,10.957,10.957,0,0,1,4.276,4.456A14.769,14.769,0,0,1,78.943,27.546Zm-5.456,0a11.449,11.449,0,0,0-.8-4.549,6.194,6.194,0,0,0-2.256-2.809,6.538,6.538,0,0,0-6.811,0A6.194,6.194,0,0,0,61.362,23a11.449,11.449,0,0,0-.8,4.549,11.449,11.449,0,0,0,.8,4.549A6.194,6.194,0,0,0,63.618,34.9a6.538,6.538,0,0,0,6.811,0A6.194,6.194,0,0,0,72.685,32.1,11.449,11.449,0,0,0,73.487,27.546Zm11.183-8.29V14.819h20.906v4.437H97.782V40.274h-5.32V19.256Zm50.471,8.29a14.769,14.769,0,0,1-1.572,7.085,10.957,10.957,0,0,1-4.276,4.456,12.79,12.79,0,0,1-12.162-.006,10.971,10.971,0,0,1-4.263-4.462,14.789,14.789,0,0,1-1.566-7.072,14.817,14.817,0,0,1,1.566-7.085,10.929,10.929,0,0,1,4.263-4.456,12.812,12.812,0,0,1,12.162,0,10.957,10.957,0,0,1,4.276,4.456A14.769,14.769,0,0,1,135.141,27.546Zm-5.456,0a11.45,11.45,0,0,0-.8-4.549,6.194,6.194,0,0,0-2.256-2.809,6.538,6.538,0,0,0-6.811,0A6.194,6.194,0,0,0,117.56,23a11.449,11.449,0,0,0-.8,4.549,11.449,11.449,0,0,0,.8,4.549,6.194,6.194,0,0,0,2.256,2.809,6.538,6.538,0,0,0,6.811,0,6.194,6.194,0,0,0,2.256-2.809A11.45,11.45,0,0,0,129.684,27.546Zm11.183-8.29V14.819h20.906v4.437H153.98V40.274h-5.32V19.256Zm26.719-4.437h6.028l5.8,10.962h.249l5.8-10.962H191.5l-9.284,16.456v9h-5.344v-9Zm30.7,25.455V14.819h10.043a10.263,10.263,0,0,1,4.934,1.1,7.581,7.581,0,0,1,3.113,3.045,9.11,9.11,0,0,1,1.075,4.481,8.95,8.95,0,0,1-1.094,4.474,7.551,7.551,0,0,1-3.163,3.02,10.686,10.686,0,0,1-5,1.081h-6.4V27.708h5.531a5.418,5.418,0,0,0,2.567-.541,3.543,3.543,0,0,0,1.516-1.5,5.141,5.141,0,0,0,0-4.437,3.482,3.482,0,0,0-1.523-1.479,5.6,5.6,0,0,0-2.585-.528h-3.629V40.274Zm31.9-25.455V40.274H224.8V14.819Zm29.578,0V40.274h-4.648L244.041,24.253h-.186V40.274h-5.382V14.819H243.2l10.987,16.009h.224V14.819Zm25.166,8.228a5.672,5.672,0,0,0-.733-1.61,4.7,4.7,0,0,0-1.15-1.193,5.132,5.132,0,0,0-1.541-.752,6.577,6.577,0,0,0-1.908-.261,6.085,6.085,0,0,0-3.424.969,6.347,6.347,0,0,0-2.293,2.815,11.069,11.069,0,0,0-.82,4.506,11.356,11.356,0,0,0,.808,4.524,6.282,6.282,0,0,0,2.287,2.84,6.2,6.2,0,0,0,3.493.976,6.9,6.9,0,0,0,3.126-.653,4.641,4.641,0,0,0,1.989-1.846,5.54,5.54,0,0,0,.69-2.821l1.094.162h-6.562V26.651h10.652v3.207a11.152,11.152,0,0,1-1.417,5.761,9.6,9.6,0,0,1-3.9,3.7,13.2,13.2,0,0,1-11.982-.286,10.865,10.865,0,0,1-4.22-4.512,14.987,14.987,0,0,1-1.51-6.954,15.816,15.816,0,0,1,.9-5.525,11.729,11.729,0,0,1,2.529-4.12,10.957,10.957,0,0,1,3.791-2.573,12.284,12.284,0,0,1,4.686-.882,12.544,12.544,0,0,1,4.027.628,10.912,10.912,0,0,1,3.312,1.771,9.631,9.631,0,0,1,2.368,2.716,9.3,9.3,0,0,1,1.181,3.461Z" transform="translate(751.929 5889.389)" fill="#f69110"/>
    <g id="g1629" transform="translate(604 6532.653)">
      <g id="g1631" transform="translate(0 -682.665)">
        <g id="g1633" clip-path="url(#clip-path)">
          <g id="g1639" transform="translate(0 44.531)">
            <path id="path1641" d="M-20.2-343.864H-39.052a1.758,1.758,0,0,1-1.758-1.758,1.758,1.758,0,0,1,1.758-1.758H-20.2a5.279,5.279,0,0,0,5.273-5.273v-57.891a5.279,5.279,0,0,0-5.273-5.273H-48.544a5.279,5.279,0,0,0-5.273,5.273v57.891a5.279,5.279,0,0,0,5.273,5.273h1.289a1.758,1.758,0,0,1,1.758,1.758,1.758,1.758,0,0,1-1.758,1.758h-1.289a8.8,8.8,0,0,1-8.789-8.789v-57.891a8.8,8.8,0,0,1,8.789-8.789H-20.2a8.8,8.8,0,0,1,8.789,8.789v57.891A8.8,8.8,0,0,1-20.2-343.864Z" transform="translate(57.333 419.332)" fill="#c6c6c8"/>
          </g>
          <g id="g1643" transform="translate(0.015 57.847)">
            <path id="path1645" d="M-205.978-6.484H-248.15a1.758,1.758,0,0,1-1.758-1.758A1.758,1.758,0,0,1-248.15-10h42.171a1.758,1.758,0,0,1,1.758,1.758A1.758,1.758,0,0,1-205.978-6.484Z" transform="translate(249.907 10)" fill="#c6c6c8"/>
          </g>
          <g id="g1647" transform="translate(0.015 104.804)">
            <path id="path1649" d="M-205.984-6.484h-42.172a1.758,1.758,0,0,1-1.758-1.758A1.758,1.758,0,0,1-248.156-10h42.172a1.758,1.758,0,0,1,1.758,1.758A1.758,1.758,0,0,1-205.984-6.484Z" transform="translate(249.914 10)" fill="#c6c6c8"/>
          </g>
          <g id="g1651" transform="translate(15.132 50.839)">
            <path id="path1653" d="M3.695-6.484H-8.242A1.758,1.758,0,0,1-10-8.242,1.758,1.758,0,0,1-8.242-10H3.695A1.758,1.758,0,0,1,5.452-8.242,1.758,1.758,0,0,1,3.695-6.484Z" transform="translate(10 10)" fill="#c6c6c8"/>
          </g>
          <g id="g1655" transform="translate(93.633 0)">
            <path id="path1657" d="M14.595,39.8a1.758,1.758,0,0,1-1.758-1.758V-1.211A5.279,5.279,0,0,0,7.563-6.484H-8.242A1.758,1.758,0,0,1-10-8.242,1.758,1.758,0,0,1-8.242-10H7.563a8.8,8.8,0,0,1,8.789,8.789V38.047A1.758,1.758,0,0,1,14.595,39.8Z" transform="translate(10 10)" fill="#c6c6c8"/>
          </g>
          <g id="g1659" transform="translate(74.531)">
            <path id="path1661" d="M-211.917-244.062h-27.876a8.8,8.8,0,0,1-8.789-8.789V-311.21A8.8,8.8,0,0,1-239.793-320h3.867a1.758,1.758,0,0,1,1.758,1.758,1.758,1.758,0,0,1-1.758,1.758h-3.867a5.279,5.279,0,0,0-5.273,5.273v58.359a5.279,5.279,0,0,0,5.273,5.273h27.876a5.279,5.279,0,0,0,5.273-5.273v-10.9a1.758,1.758,0,0,1,1.758-1.758,1.758,1.758,0,0,1,1.758,1.758v10.9A8.8,8.8,0,0,1-211.917-244.062Z" transform="translate(248.582 319.999)" fill="#c6c6c8"/>
          </g>
          <g id="g1663" transform="translate(74.546 13.403)">
            <path id="path1665" d="M-203.792-6.484H-245.5a1.758,1.758,0,0,1-1.758-1.758A1.758,1.758,0,0,1-245.5-10h41.705a1.758,1.758,0,0,1,1.758,1.758A1.758,1.758,0,0,1-203.792-6.484Z" transform="translate(247.255 10)" fill="#c6c6c8"/>
          </g>
          <g id="g1667" transform="translate(74.546 60.665)">
            <path id="path1669" d="M-203.787-6.484h-41.7a1.758,1.758,0,0,1-1.758-1.758A1.758,1.758,0,0,1-245.491-10h41.7a1.758,1.758,0,0,1,1.758,1.758A1.758,1.758,0,0,1-203.787-6.484Z" transform="translate(247.249 10)" fill="#c6c6c8"/>
          </g>
          <g id="g1671" transform="translate(89.496 6.349)">
            <path id="path1673" d="M3.563-6.484h-11.8A1.758,1.758,0,0,1-10-8.242,1.758,1.758,0,0,1-8.242-10h11.8A1.758,1.758,0,0,1,5.32-8.242,1.758,1.758,0,0,1,3.563-6.484Z" transform="translate(10 10)" fill="#c6c6c8"/>
          </g>
          <g id="g1675" transform="translate(12.422 75.915)">
            <path id="path1677" d="M-68.648,2.467h-9.844A5.514,5.514,0,0,1-84-3.041V-4.492A5.514,5.514,0,0,1-78.492-10h1.129A1.758,1.758,0,0,1-75.6-8.242a1.758,1.758,0,0,1-1.758,1.758h-1.129a1.994,1.994,0,0,0-1.992,1.992v1.451a1.994,1.994,0,0,0,1.992,1.992h9.844a1.994,1.994,0,0,0,1.992-1.992V-4.492a1.994,1.994,0,0,0-1.992-1.992h-.586a1.758,1.758,0,0,1-1.758-1.758A1.758,1.758,0,0,1-69.234-10h.586A5.514,5.514,0,0,1-63.14-4.492v1.451A5.514,5.514,0,0,1-68.648,2.467Z" transform="translate(84 10)" fill="#c6c6c8"/>
          </g>
          <g id="g1679" transform="translate(89.18 29.18)">
            <path id="path1681" d="M-37.364-35.607a1.752,1.752,0,0,1-1.243-.515l-6.211-6.211a1.758,1.758,0,0,1,0-2.486,1.758,1.758,0,0,1,2.486,0l6.211,6.211a1.758,1.758,0,0,1,0,2.486A1.752,1.752,0,0,1-37.364-35.607Z" transform="translate(45.333 45.333)" fill="#c6c6c8"/>
          </g>
          <g id="g1683" transform="translate(89.18 35.391)">
            <path id="path1685" d="M-43.575-.273a1.752,1.752,0,0,1-1.243-.515,1.758,1.758,0,0,1,0-2.486l6.211-6.211a1.758,1.758,0,0,1,2.486,0,1.758,1.758,0,0,1,0,2.486L-42.332-.788A1.752,1.752,0,0,1-43.575-.273Z" transform="translate(45.333 10)" fill="#c6c6c8"/>
          </g>
          <g id="g1687" transform="translate(29.766 35.391)">
            <path id="path1689" d="M8.4-217.484H-8.242A1.758,1.758,0,0,1-10-219.242,1.758,1.758,0,0,1-8.242-221H8.4a9.972,9.972,0,0,0,9.961-9.961v-21.562A13.492,13.492,0,0,1,31.836-266H57.383a1.758,1.758,0,0,1,1.758,1.758,1.758,1.758,0,0,1-1.758,1.758H31.836a9.972,9.972,0,0,0-9.961,9.961v21.563A13.492,13.492,0,0,1,8.4-217.484Z" transform="translate(10 265.999)" fill="#c6c6c8"/>
          </g>
          <g id="g1691" transform="translate(0 44.531)">
            <path id="path1693" d="M-20.2-343.864H-39.052a1.758,1.758,0,0,1-1.758-1.758,1.758,1.758,0,0,1,1.758-1.758H-20.2a5.279,5.279,0,0,0,5.273-5.273v-57.891a5.279,5.279,0,0,0-5.273-5.273H-48.544a5.279,5.279,0,0,0-5.273,5.273v57.891a5.279,5.279,0,0,0,5.273,5.273h1.289a1.758,1.758,0,0,1,1.758,1.758,1.758,1.758,0,0,1-1.758,1.758h-1.289a8.8,8.8,0,0,1-8.789-8.789v-57.891a8.8,8.8,0,0,1,8.789-8.789H-20.2a8.8,8.8,0,0,1,8.789,8.789v57.891A8.8,8.8,0,0,1-20.2-343.864Z" transform="translate(57.333 419.332)" fill="#c6c6c8"/>
          </g>
          <g id="g1695" transform="translate(0.015 57.847)">
            <path id="path1697" d="M-205.978-6.484H-248.15a1.758,1.758,0,0,1-1.758-1.758A1.758,1.758,0,0,1-248.15-10h42.171a1.758,1.758,0,0,1,1.758,1.758A1.758,1.758,0,0,1-205.978-6.484Z" transform="translate(249.907 10)" fill="#c6c6c8"/>
          </g>
          <g id="g1699" transform="translate(0.015 104.804)">
            <path id="path1701" d="M-205.984-6.484h-42.172a1.758,1.758,0,0,1-1.758-1.758A1.758,1.758,0,0,1-248.156-10h42.172a1.758,1.758,0,0,1,1.758,1.758A1.758,1.758,0,0,1-205.984-6.484Z" transform="translate(249.914 10)" fill="#c6c6c8"/>
          </g>
          <g id="g1703" transform="translate(15.132 50.839)">
            <path id="path1705" d="M3.695-6.484H-8.242A1.758,1.758,0,0,1-10-8.242,1.758,1.758,0,0,1-8.242-10H3.695A1.758,1.758,0,0,1,5.452-8.242,1.758,1.758,0,0,1,3.695-6.484Z" transform="translate(10 10)" fill="#c6c6c8"/>
          </g>
          <g id="g1707" transform="translate(93.633 0)">
            <path id="path1709" d="M14.595,39.8a1.758,1.758,0,0,1-1.758-1.758V-1.211A5.279,5.279,0,0,0,7.563-6.484H-8.242A1.758,1.758,0,0,1-10-8.242,1.758,1.758,0,0,1-8.242-10H7.563a8.8,8.8,0,0,1,8.789,8.789V38.047A1.758,1.758,0,0,1,14.595,39.8Z" transform="translate(10 10)" fill="#c6c6c8"/>
          </g>
          <g id="g1711" transform="translate(74.531)">
            <path id="path1713" d="M-211.917-244.062h-27.876a8.8,8.8,0,0,1-8.789-8.789V-311.21A8.8,8.8,0,0,1-239.793-320h3.867a1.758,1.758,0,0,1,1.758,1.758,1.758,1.758,0,0,1-1.758,1.758h-3.867a5.279,5.279,0,0,0-5.273,5.273v58.359a5.279,5.279,0,0,0,5.273,5.273h27.876a5.279,5.279,0,0,0,5.273-5.273v-10.9a1.758,1.758,0,0,1,1.758-1.758,1.758,1.758,0,0,1,1.758,1.758v10.9A8.8,8.8,0,0,1-211.917-244.062Z" transform="translate(248.582 319.999)" fill="#c6c6c8"/>
          </g>
          <g id="g1715" transform="translate(74.546 13.403)">
            <path id="path1717" d="M-203.792-6.484H-245.5a1.758,1.758,0,0,1-1.758-1.758A1.758,1.758,0,0,1-245.5-10h41.705a1.758,1.758,0,0,1,1.758,1.758A1.758,1.758,0,0,1-203.792-6.484Z" transform="translate(247.255 10)" fill="#c6c6c8"/>
          </g>
          <g id="g1719" transform="translate(74.546 60.665)">
            <path id="path1721" d="M-203.787-6.484h-41.7a1.758,1.758,0,0,1-1.758-1.758A1.758,1.758,0,0,1-245.491-10h41.7a1.758,1.758,0,0,1,1.758,1.758A1.758,1.758,0,0,1-203.787-6.484Z" transform="translate(247.249 10)" fill="#c6c6c8"/>
          </g>
          <g id="g1723" transform="translate(89.496 6.349)">
            <path id="path1725" d="M3.563-6.484h-11.8A1.758,1.758,0,0,1-10-8.242,1.758,1.758,0,0,1-8.242-10h11.8A1.758,1.758,0,0,1,5.32-8.242,1.758,1.758,0,0,1,3.563-6.484Z" transform="translate(10 10)" fill="#c6c6c8"/>
          </g>
          <g id="g1727" transform="translate(12.422 75.915)">
            <path id="path1729" d="M-68.648,2.467h-9.844A5.514,5.514,0,0,1-84-3.041V-4.492A5.514,5.514,0,0,1-78.492-10h1.129A1.758,1.758,0,0,1-75.6-8.242a1.758,1.758,0,0,1-1.758,1.758h-1.129a1.994,1.994,0,0,0-1.992,1.992v1.451a1.994,1.994,0,0,0,1.992,1.992h9.844a1.994,1.994,0,0,0,1.992-1.992V-4.492a1.994,1.994,0,0,0-1.992-1.992h-.586a1.758,1.758,0,0,1-1.758-1.758A1.758,1.758,0,0,1-69.234-10h.586A5.514,5.514,0,0,1-63.14-4.492v1.451A5.514,5.514,0,0,1-68.648,2.467Z" transform="translate(84 10)" fill="#c6c6c8"/>
          </g>
          <g id="g1731" transform="translate(89.18 29.18)">
            <path id="path1733" d="M-37.364-35.607a1.752,1.752,0,0,1-1.243-.515l-6.211-6.211a1.758,1.758,0,0,1,0-2.486,1.758,1.758,0,0,1,2.486,0l6.211,6.211a1.758,1.758,0,0,1,0,2.486A1.752,1.752,0,0,1-37.364-35.607Z" transform="translate(45.333 45.333)" fill="#c6c6c8"/>
          </g>
          <g id="g1735" transform="translate(89.18 35.391)">
            <path id="path1737" d="M-43.575-.273a1.752,1.752,0,0,1-1.243-.515,1.758,1.758,0,0,1,0-2.486l6.211-6.211a1.758,1.758,0,0,1,2.486,0,1.758,1.758,0,0,1,0,2.486L-42.332-.788A1.752,1.752,0,0,1-43.575-.273Z" transform="translate(45.333 10)" fill="#c6c6c8"/>
          </g>
          <g id="g1739" transform="translate(29.766 35.391)">
            <path id="path1741" d="M8.4-217.484H-8.242A1.758,1.758,0,0,1-10-219.242,1.758,1.758,0,0,1-8.242-221H8.4a9.972,9.972,0,0,0,9.961-9.961v-21.562A13.492,13.492,0,0,1,31.836-266H57.383a1.758,1.758,0,0,1,1.758,1.758,1.758,1.758,0,0,1-1.758,1.758H31.836a9.972,9.972,0,0,0-9.961,9.961v21.563A13.492,13.492,0,0,1,8.4-217.484Z" transform="translate(10 265.999)" fill="#c6c6c8"/>
          </g>
        </g>
      </g>
    </g>
    <text id="Our_research_and_agile-led_methodology_of_developing_a_mobile_app_solution_not_only_limit_to_solving_the_problem.-3" data-name="Our research and agile-led methodology of developing
a mobile app solution not only limit to solving the problem." transform="translate(876 5649.41)" fill="#1a1818" font-size="18" font-family="Inter-Regular, Inter"><tspan x="0" y="0">Our research and agile-led methodology of developing</tspan><tspan x="0" y="21.6">a mobile app solution not only limit to solving the problem.</tspan></text>
    <path id="Path_766" data-name="Path 766" d="M11.236,0H2.212V-25.455h9.1a13.537,13.537,0,0,1,6.612,1.523,10.389,10.389,0,0,1,4.269,4.369,14.45,14.45,0,0,1,1.5,6.811,14.554,14.554,0,0,1-1.5,6.836A10.382,10.382,0,0,1,17.9-1.529,13.683,13.683,0,0,1,11.236,0ZM7.594-4.611h3.418a8.628,8.628,0,0,0,4.021-.851A5.442,5.442,0,0,0,17.494-8.11a11.169,11.169,0,0,0,.827-4.642,11.053,11.053,0,0,0-.827-4.611A5.422,5.422,0,0,0,15.039-20a8.642,8.642,0,0,0-4.015-.845H7.594ZM36.9-25.455V0H31.517V-25.455Zm22.1,7.321a3.145,3.145,0,0,0-1.28-2.337,5.073,5.073,0,0,0-3.07-.833,5.952,5.952,0,0,0-2.225.367,3.129,3.129,0,0,0-1.386,1.013,2.4,2.4,0,0,0-.479,1.467,2.065,2.065,0,0,0,.292,1.193,2.85,2.85,0,0,0,.876.876,6.258,6.258,0,0,0,1.293.634,12.633,12.633,0,0,0,1.566.454l2.287.547a16.131,16.131,0,0,1,3.058.994,9.288,9.288,0,0,1,2.411,1.529,6.428,6.428,0,0,1,1.585,2.138A6.817,6.817,0,0,1,64.5-7.271a7.035,7.035,0,0,1-1.187,4.046A7.563,7.563,0,0,1,59.933-.578,13.544,13.544,0,0,1,54.619.36a13.955,13.955,0,0,1-5.363-.945,7.805,7.805,0,0,1-3.555-2.8,8.3,8.3,0,0,1-1.336-4.6h5.208a3.848,3.848,0,0,0,.74,2.132,3.965,3.965,0,0,0,1.752,1.28,6.819,6.819,0,0,0,2.492.429,6.5,6.5,0,0,0,2.38-.4A3.643,3.643,0,0,0,58.51-5.655a2.554,2.554,0,0,0,.559-1.628,2.131,2.131,0,0,0-.5-1.442A3.93,3.93,0,0,0,57.1-9.719a15.151,15.151,0,0,0-2.355-.746l-2.772-.7a11.622,11.622,0,0,1-5.083-2.449A5.68,5.68,0,0,1,45.037-18.1a6.648,6.648,0,0,1,1.237-4.039,8.255,8.255,0,0,1,3.437-2.7,12.152,12.152,0,0,1,4.972-.969,11.8,11.8,0,0,1,4.953.969,7.832,7.832,0,0,1,3.3,2.7,7.136,7.136,0,0,1,1.218,4Zm35.42,1.591H88.97a5.385,5.385,0,0,0-.609-1.883,4.8,4.8,0,0,0-1.181-1.411,5.209,5.209,0,0,0-1.659-.895,6.428,6.428,0,0,0-2.032-.311,6.07,6.07,0,0,0-3.443.976,6.317,6.317,0,0,0-2.274,2.834,11.275,11.275,0,0,0-.808,4.506,11.366,11.366,0,0,0,.814,4.574,6.159,6.159,0,0,0,2.281,2.8,6.128,6.128,0,0,0,3.393.945A6.774,6.774,0,0,0,85.459-4.7a5.2,5.2,0,0,0,1.647-.839,4.8,4.8,0,0,0,1.2-1.349A5.357,5.357,0,0,0,88.97-8.7l5.444.025A9.866,9.866,0,0,1,93.364-5.3a10.193,10.193,0,0,1-2.25,2.9A10.53,10.53,0,0,1,87.758-.392a12.292,12.292,0,0,1-4.394.74,11.977,11.977,0,0,1-6.084-1.541,10.887,10.887,0,0,1-4.226-4.462,14.936,14.936,0,0,1-1.547-7.072,14.817,14.817,0,0,1,1.566-7.085,10.954,10.954,0,0,1,4.251-4.456,11.951,11.951,0,0,1,6.04-1.535,13.113,13.113,0,0,1,4.108.621,10.478,10.478,0,0,1,3.362,1.808,9.485,9.485,0,0,1,2.393,2.9A10.872,10.872,0,0,1,94.414-16.543Zm23.438-8.912h5.382V-8.924a8.9,8.9,0,0,1-1.324,4.872,8.9,8.9,0,0,1-3.7,3.25A12.438,12.438,0,0,1,112.682.36,12.468,12.468,0,0,1,107.138-.8a8.853,8.853,0,0,1-3.691-3.25,8.936,8.936,0,0,1-1.317-4.872V-25.455h5.382V-9.384a5.157,5.157,0,0,0,.64,2.585,4.579,4.579,0,0,0,1.808,1.777,5.533,5.533,0,0,0,2.722.646,5.524,5.524,0,0,0,2.728-.646,4.59,4.59,0,0,0,1.8-1.777,5.157,5.157,0,0,0,.64-2.585Zm27.465,7.321a3.146,3.146,0,0,0-1.28-2.337,5.073,5.073,0,0,0-3.07-.833,5.952,5.952,0,0,0-2.225.367,3.129,3.129,0,0,0-1.386,1.013,2.4,2.4,0,0,0-.479,1.467,2.065,2.065,0,0,0,.292,1.193,2.85,2.85,0,0,0,.876.876,6.259,6.259,0,0,0,1.293.634,12.634,12.634,0,0,0,1.566.454l2.287.547a16.131,16.131,0,0,1,3.058.994,9.288,9.288,0,0,1,2.411,1.529,6.427,6.427,0,0,1,1.585,2.138,6.817,6.817,0,0,1,.578,2.821,7.035,7.035,0,0,1-1.187,4.046,7.563,7.563,0,0,1-3.381,2.647,13.544,13.544,0,0,1-5.313.938,13.955,13.955,0,0,1-5.363-.945,7.805,7.805,0,0,1-3.555-2.8,8.3,8.3,0,0,1-1.336-4.6H135.9a3.847,3.847,0,0,0,.74,2.132,3.965,3.965,0,0,0,1.752,1.28,6.819,6.819,0,0,0,2.492.429,6.5,6.5,0,0,0,2.38-.4,3.643,3.643,0,0,0,1.572-1.106,2.554,2.554,0,0,0,.559-1.628,2.131,2.131,0,0,0-.5-1.442,3.93,3.93,0,0,0-1.467-.994,15.151,15.151,0,0,0-2.355-.746l-2.772-.7a11.622,11.622,0,0,1-5.083-2.449,5.68,5.68,0,0,1-1.852-4.487,6.648,6.648,0,0,1,1.237-4.039,8.255,8.255,0,0,1,3.437-2.7A12.152,12.152,0,0,1,141-25.8a11.8,11.8,0,0,1,4.953.969,7.832,7.832,0,0,1,3.3,2.7,7.136,7.136,0,0,1,1.218,4Zm26.769,0a3.146,3.146,0,0,0-1.28-2.337,5.073,5.073,0,0,0-3.07-.833,5.952,5.952,0,0,0-2.225.367,3.129,3.129,0,0,0-1.386,1.013,2.4,2.4,0,0,0-.479,1.467,2.065,2.065,0,0,0,.292,1.193,2.85,2.85,0,0,0,.876.876,6.259,6.259,0,0,0,1.293.634,12.634,12.634,0,0,0,1.566.454l2.287.547a16.131,16.131,0,0,1,3.058.994,9.288,9.288,0,0,1,2.411,1.529,6.427,6.427,0,0,1,1.585,2.138,6.817,6.817,0,0,1,.578,2.821,7.035,7.035,0,0,1-1.187,4.046,7.563,7.563,0,0,1-3.381,2.647,13.544,13.544,0,0,1-5.313.938,13.955,13.955,0,0,1-5.363-.945,7.805,7.805,0,0,1-3.555-2.8,8.3,8.3,0,0,1-1.336-4.6h5.208a3.847,3.847,0,0,0,.74,2.132,3.965,3.965,0,0,0,1.752,1.28,6.819,6.819,0,0,0,2.492.429,6.5,6.5,0,0,0,2.38-.4A3.643,3.643,0,0,0,171.6-5.655a2.554,2.554,0,0,0,.559-1.628,2.131,2.131,0,0,0-.5-1.442,3.93,3.93,0,0,0-1.467-.994,15.151,15.151,0,0,0-2.355-.746l-2.772-.7a11.622,11.622,0,0,1-5.083-2.449,5.68,5.68,0,0,1-1.852-4.487,6.648,6.648,0,0,1,1.237-4.039,8.255,8.255,0,0,1,3.437-2.7,12.152,12.152,0,0,1,4.972-.969,11.8,11.8,0,0,1,4.953.969,7.832,7.832,0,0,1,3.3,2.7,7.136,7.136,0,0,1,1.218,4Zm18.342-7.321V0h-5.382V-25.455Zm31.678,12.727a14.769,14.769,0,0,1-1.572,7.085,10.957,10.957,0,0,1-4.276,4.456A12.078,12.078,0,0,1,210.187.348a12.054,12.054,0,0,1-6.09-1.541,10.971,10.971,0,0,1-4.263-4.462,14.788,14.788,0,0,1-1.566-7.072,14.817,14.817,0,0,1,1.566-7.085,10.929,10.929,0,0,1,4.263-4.456,12.093,12.093,0,0,1,6.09-1.535,12.078,12.078,0,0,1,6.072,1.535,10.957,10.957,0,0,1,4.276,4.456A14.769,14.769,0,0,1,222.107-12.727Zm-5.456,0a11.45,11.45,0,0,0-.8-4.549,6.194,6.194,0,0,0-2.256-2.809,6.052,6.052,0,0,0-3.406-.957,6.052,6.052,0,0,0-3.406.957,6.194,6.194,0,0,0-2.256,2.809,11.45,11.45,0,0,0-.8,4.549,11.45,11.45,0,0,0,.8,4.549,6.194,6.194,0,0,0,2.256,2.809,6.052,6.052,0,0,0,3.406.957,6.052,6.052,0,0,0,3.406-.957,6.194,6.194,0,0,0,2.256-2.809A11.45,11.45,0,0,0,216.651-12.727Zm34.574-12.727V0h-4.648L235.5-16.021h-.186V0h-5.382V-25.455h4.723L245.644-9.446h.224V-25.455ZM279.184.373a10.177,10.177,0,0,1-4.549-.945A7.086,7.086,0,0,1,271.7-3.138a6.64,6.64,0,0,1-1.025-3.623,5.69,5.69,0,0,1,.6-2.647,7.628,7.628,0,0,1,1.665-2.132,22.7,22.7,0,0,1,2.486-1.945l4.934-3.244a4.612,4.612,0,0,0,1.4-1.286,2.619,2.619,0,0,0,.447-1.473,2.014,2.014,0,0,0-.609-1.4,2.223,2.223,0,0,0-1.728-.634,2.458,2.458,0,0,0-1.293.329,2.378,2.378,0,0,0-.851.858,2.309,2.309,0,0,0-.3,1.175,3.357,3.357,0,0,0,.447,1.616,11.469,11.469,0,0,0,1.193,1.734q.746.914,1.628,1.97L292.757,0h-5.518L277.171-11.211q-.994-1.131-1.982-2.368a13.273,13.273,0,0,1-1.647-2.635,7.04,7.04,0,0,1-.659-3.039,6.481,6.481,0,0,1,.864-3.331,6.239,6.239,0,0,1,2.43-2.343,7.446,7.446,0,0,1,3.654-.864,7.135,7.135,0,0,1,3.524.827,5.937,5.937,0,0,1,2.287,2.188,5.782,5.782,0,0,1,.8,2.989,6.153,6.153,0,0,1-.889,3.263,9.051,9.051,0,0,1-2.492,2.616l-5.2,3.741a5.929,5.929,0,0,0-1.56,1.572,2.9,2.9,0,0,0-.5,1.535,3.024,3.024,0,0,0,.447,1.628,3.107,3.107,0,0,0,1.268,1.137,4.2,4.2,0,0,0,1.926.416,6.192,6.192,0,0,0,2.654-.615,7.886,7.886,0,0,0,2.386-1.752,8.745,8.745,0,0,0,1.721-2.7,9.007,9.007,0,0,0,.646-3.468h4.387a16.016,16.016,0,0,1-.51,4.207,11.35,11.35,0,0,1-1.417,3.256,8.936,8.936,0,0,1-2.076,2.268q-.373.236-.721.447t-.721.447a9.005,9.005,0,0,1-3.163,1.653A12.269,12.269,0,0,1,279.184.373ZM2.212,40.274V14.819H12.4a11.569,11.569,0,0,1,4.686.833,6.24,6.24,0,0,1,2.821,2.306,6.136,6.136,0,0,1,.945,3.387,5.5,5.5,0,0,1-.6,2.616A5.1,5.1,0,0,1,18.625,25.8a6.722,6.722,0,0,1-2.368,1.013v.249a5.738,5.738,0,0,1,2.728.82A5.839,5.839,0,0,1,21.055,30a6.305,6.305,0,0,1,.8,3.238,6.619,6.619,0,0,1-1,3.611,6.808,6.808,0,0,1-2.952,2.5,11.243,11.243,0,0,1-4.81.92Zm5.382-4.4h4.387a5.074,5.074,0,0,0,3.281-.864A2.855,2.855,0,0,0,16.294,32.7a3.42,3.42,0,0,0-.51-1.864,3.469,3.469,0,0,0-1.448-1.268,5.021,5.021,0,0,0-2.231-.46H7.594Zm0-10.4h3.99a4.724,4.724,0,0,0,1.97-.392,3.275,3.275,0,0,0,1.367-1.112,2.941,2.941,0,0,0,.5-1.728,2.8,2.8,0,0,0-.976-2.225,4.1,4.1,0,0,0-2.765-.845H7.594Zm21.6,14.8V14.819H39.235a10.892,10.892,0,0,1,4.928,1.025,7.241,7.241,0,0,1,3.12,2.9,8.665,8.665,0,0,1,1.075,4.394,8.305,8.305,0,0,1-1.094,4.356,7.087,7.087,0,0,1-3.163,2.79,11.724,11.724,0,0,1-5,.969H32.375V26.925h5.854a6.722,6.722,0,0,0,2.56-.423,3.076,3.076,0,0,0,1.523-1.268,4.044,4.044,0,0,0,.5-2.1,4.207,4.207,0,0,0-.5-2.138,3.194,3.194,0,0,0-1.529-1.324,6.392,6.392,0,0,0-2.579-.454H34.574V40.274ZM42.939,28.69l6.326,11.584H43.324L37.135,28.69ZM60.4,40.274H54.632l8.787-25.455h6.935l8.775,25.455H73.362L66.986,20.636h-.2Zm-.36-10.005H73.661v4.2H60.038Zm31.38-15.449V40.274H86.037V14.819Zm29.578,0V40.274h-4.648L105.274,24.253h-.186V40.274H99.706V14.819h4.723l10.987,16.009h.224V14.819Zm22.1,7.321a3.146,3.146,0,0,0-1.28-2.337,5.073,5.073,0,0,0-3.07-.833,5.952,5.952,0,0,0-2.225.367,3.129,3.129,0,0,0-1.386,1.013,2.4,2.4,0,0,0-.479,1.467,2.065,2.065,0,0,0,.292,1.193,2.85,2.85,0,0,0,.876.876,6.259,6.259,0,0,0,1.293.634,12.633,12.633,0,0,0,1.566.454l2.287.547a16.131,16.131,0,0,1,3.058.994,9.288,9.288,0,0,1,2.411,1.529,6.427,6.427,0,0,1,1.585,2.138A6.817,6.817,0,0,1,148.6,33a7.035,7.035,0,0,1-1.187,4.046,7.563,7.563,0,0,1-3.381,2.647,13.544,13.544,0,0,1-5.313.938,13.955,13.955,0,0,1-5.363-.945,7.805,7.805,0,0,1-3.555-2.8,8.3,8.3,0,0,1-1.336-4.6h5.208a3.847,3.847,0,0,0,.74,2.132,3.965,3.965,0,0,0,1.752,1.28,6.819,6.819,0,0,0,2.492.429,6.5,6.5,0,0,0,2.38-.4,3.643,3.643,0,0,0,1.572-1.106,2.554,2.554,0,0,0,.559-1.628,2.131,2.131,0,0,0-.5-1.442,3.93,3.93,0,0,0-1.467-.994,15.151,15.151,0,0,0-2.355-.746l-2.772-.7a11.622,11.622,0,0,1-5.083-2.449,5.68,5.68,0,0,1-1.852-4.487,6.648,6.648,0,0,1,1.237-4.039,8.255,8.255,0,0,1,3.437-2.7,12.152,12.152,0,0,1,4.972-.969,11.8,11.8,0,0,1,4.953.969,7.832,7.832,0,0,1,3.3,2.7,7.136,7.136,0,0,1,1.218,4Zm11.991-2.884V14.819h20.906v4.437H168.2V40.274h-5.32V19.256Zm50.471,8.29a14.769,14.769,0,0,1-1.572,7.085,10.957,10.957,0,0,1-4.276,4.456,12.79,12.79,0,0,1-12.162-.006,10.971,10.971,0,0,1-4.263-4.462,14.788,14.788,0,0,1-1.566-7.072,14.817,14.817,0,0,1,1.566-7.085,10.929,10.929,0,0,1,4.263-4.456,12.812,12.812,0,0,1,12.162,0,10.957,10.957,0,0,1,4.276,4.456A14.769,14.769,0,0,1,205.554,27.546Zm-5.456,0A11.45,11.45,0,0,0,199.3,23a6.194,6.194,0,0,0-2.256-2.809,6.538,6.538,0,0,0-6.811,0A6.194,6.194,0,0,0,187.974,23a11.45,11.45,0,0,0-.8,4.549,11.45,11.45,0,0,0,.8,4.549,6.194,6.194,0,0,0,2.256,2.809,6.538,6.538,0,0,0,6.811,0A6.194,6.194,0,0,0,199.3,32.1,11.45,11.45,0,0,0,200.1,27.546Zm13.284,12.727V14.819h10.043a10.892,10.892,0,0,1,4.928,1.025,7.241,7.241,0,0,1,3.12,2.9,8.665,8.665,0,0,1,1.075,4.394,8.305,8.305,0,0,1-1.094,4.356,7.087,7.087,0,0,1-3.163,2.79,11.724,11.724,0,0,1-5,.969h-6.724V26.925h5.854a6.722,6.722,0,0,0,2.56-.423,3.076,3.076,0,0,0,1.523-1.268,4.044,4.044,0,0,0,.5-2.1A4.207,4.207,0,0,0,226.5,21a3.194,3.194,0,0,0-1.529-1.324,6.392,6.392,0,0,0-2.579-.454h-3.629V40.274ZM227.128,28.69l6.326,11.584h-5.941l-6.19-11.584ZM240.2,14.819h6.637l7.01,17.1h.3l7.01-17.1h6.637V40.274h-5.22V23.706h-.211l-6.587,16.444h-3.555l-6.587-16.506h-.211v16.63H240.2Zm41.249,0V40.274h-5.382V14.819Zm29.578,0V40.274h-4.648L295.3,24.253h-.186V40.274h-5.382V14.819h4.723l10.987,16.009h.224V14.819Zm25.166,8.228a5.672,5.672,0,0,0-.733-1.61,4.7,4.7,0,0,0-1.15-1.193,5.132,5.132,0,0,0-1.541-.752,6.577,6.577,0,0,0-1.908-.261,6.085,6.085,0,0,0-3.424.969,6.347,6.347,0,0,0-2.293,2.815,11.069,11.069,0,0,0-.82,4.506,11.356,11.356,0,0,0,.808,4.524,6.282,6.282,0,0,0,2.287,2.84,6.2,6.2,0,0,0,3.493.976,6.9,6.9,0,0,0,3.126-.653,4.641,4.641,0,0,0,1.989-1.846,5.54,5.54,0,0,0,.69-2.821l1.094.162h-6.562V26.651H341.9v3.207a11.152,11.152,0,0,1-1.417,5.761,9.6,9.6,0,0,1-3.9,3.7,13.2,13.2,0,0,1-11.982-.286,10.865,10.865,0,0,1-4.22-4.512,14.987,14.987,0,0,1-1.51-6.954,15.816,15.816,0,0,1,.9-5.525,11.729,11.729,0,0,1,2.529-4.12,10.957,10.957,0,0,1,3.791-2.573,12.284,12.284,0,0,1,4.686-.882,12.544,12.544,0,0,1,4.027.628,10.912,10.912,0,0,1,3.312,1.771,9.631,9.631,0,0,1,2.368,2.716,9.3,9.3,0,0,1,1.181,3.461Z" transform="translate(876.926 5581.803)" fill="url(#linear-gradient-13)"/>
    <g id="_x35_7" transform="translate(755 5543)">
      <path id="Path_771" data-name="Path 771" d="M32.773,8.382a1.629,1.629,0,0,1-.886-2.127,10.323,10.323,0,0,0,.766-3.46,1.63,1.63,0,0,1,3.256.144A13.492,13.492,0,0,1,34.9,7.494a1.63,1.63,0,0,1-2.128.887Z" transform="translate(15.041 0.05)" fill="#c6c6c8"/>
      <path id="Path_772" data-name="Path 772" d="M42.63,8.3a1.63,1.63,0,0,1-1.558-1.153l-1.343-4.39A1.631,1.631,0,0,1,42.848,1.8l1.343,4.39A1.631,1.631,0,0,1,42.63,8.3Z" transform="translate(-10.467 -0.646)" fill="#c6c6c8"/>
      <path id="Path_773" data-name="Path 773" d="M51,10.073a11.388,11.388,0,0,1-3.739-3.261,1.63,1.63,0,0,1,2.63-1.927,8.13,8.13,0,0,0,2.661,2.322A1.629,1.629,0,1,1,51,10.073Z" transform="translate(-35.44 3.545)" fill="#c6c6c8"/>
      <path id="Path_774" data-name="Path 774" d="M33.08,6.58a22.91,22.91,0,0,1,5.657-1.454A26.024,26.024,0,0,1,62.668,16.039a26.9,26.9,0,0,1,1.763,26.8c-3.088,6.053-7.472,10.247-7.892,16.829-.187,2.929-.739,6.167-3.418,7.96a1.539,1.539,0,0,1-.195.08l-.087.162a6.084,6.084,0,0,1,.606,4.057,5.2,5.2,0,0,1,2.95-.68c3.081.335,4.564,3.356,5.273,4.8,1.048,2.112,2.116,4.2,3.182,6.288C68.811,90.085,72.86,98.061,75.44,106.7a4.17,4.17,0,0,1,3.689-2.077,5.132,5.132,0,0,1,3.516,1.6c.926.219,11.34,4.235,11.558,4.319a1.631,1.631,0,0,1-.582,3.152c-.533,0,.14.1-8.943-3.276a35.327,35.327,0,0,1,.632,12.89c-.787,4.631-3.105,9.061-6.89,11.677,2.68.959,5.468,1.988,6.829,2.4a1.631,1.631,0,0,1-.953,3.12c-.532-.163-10.42-3.583-10.782-3.91a5.724,5.724,0,0,1-3.965-1.712,56.408,56.408,0,0,1-7.757,1.656,55.165,55.165,0,0,1-16.018.619c-14.089-1.722-24.255-11.653-25.456-18.3a5.215,5.215,0,0,1,.272-2.746c.1-1.5,1-2.963,3.157-3.944a35.745,35.745,0,0,1-2.851-3.248c-3.062-3.345-2.617-7.612.283-9.66a6.106,6.106,0,0,1,2.076-8.276c-3.322-4.1.024-8.406,4.43-8.71a4.034,4.034,0,0,1-.315-2.793c.271-1.188.037-1.157-.417-1.564-2.027-2.251-.923-5.306.358-5.044a3.818,3.818,0,0,1-.707-5.107l.012-.014a5.676,5.676,0,0,1-2.38-2.281c-1.13-3.052-.513-6.343-1.961-9.525-1.385-3.045-3.579-5.657-5.363-8.468a26.788,26.788,0,0,1-1.93-24.865c3.535-8.176,8.677-13.51,18.1-16.034ZM52.15,90.745c-.632-1.882-1.343-3.723-1.842-5.593a39.426,39.426,0,0,1-3.872,4.663,1.525,1.525,0,0,1-.3.31,65.759,65.759,0,0,0,7.015,2.9c-.25-.57-.731-1.464-1-2.276Zm-8.756-1.887a2.1,2.1,0,0,1,.6-1.223c2.181-2.024,4.368-5.653,5.28-6.292a1.161,1.161,0,0,0,.369-.6,8.664,8.664,0,0,1,.009-1.014,1.209,1.209,0,0,0-.141-.329,1.642,1.642,0,0,1,.43-2.109,10.83,10.83,0,0,1,.415-1.392,1.8,1.8,0,0,0-.53-1.152,1.629,1.629,0,0,1-.574-1.467,1.82,1.82,0,0,1,.7-1.433,1.442,1.442,0,0,0,.345-1.191,4.793,4.793,0,0,0-.731-1.987.08.08,0,0,0-.007-.013,66.514,66.514,0,0,1-16.13.089,5.343,5.343,0,0,0-.686,1.735c-.159,1.44.834,1.012.924,2.318a1.774,1.774,0,0,1-.623,1.775,1.918,1.918,0,0,0-.348,2.32,1.631,1.631,0,0,1,.655.783c.492,1.241-.573,1.484-.412,2.679.068.582.282.609.478,1.008a1.63,1.63,0,0,1-.263,1.883,1.54,1.54,0,0,1-.242.167c.013.006,5.9,3.27,10.475,5.445Zm.093-40.179a12.007,12.007,0,0,1-4.231.346A141.848,141.848,0,0,1,38.2,65.837c1.705.08,3.454.1,5.183.055a114.376,114.376,0,0,0,.109-17.213Zm18.041-7.321a23.552,23.552,0,0,0-1.547-23.471A22.591,22.591,0,0,0,38.173,8.5,23.98,23.98,0,0,0,20.692,22.458a24.69,24.69,0,0,0-.768,16.424c2.848,10.371,10.234,13.324,10.323,23.083.009,1.079-.015,2.592.9,3.17a34.159,34.159,0,0,0,3.8.482A133.669,133.669,0,0,0,35.978,48.23a12.263,12.263,0,0,1-7.469-10.446c-.5-7.14,8.642-8.118,10.238,3.933.176,1.339.3,2.677.386,4.016a8.421,8.421,0,0,0,4.2-.425c-.3-13.212,8.546-12.886,8.291-6.759a11.145,11.145,0,0,1-4.948,8.684,124.249,124.249,0,0,1-.013,18.48,31.334,31.334,0,0,0,4.558-.7c.034-.027.052-.065.088-.089,1.5-1,1.843-3.324,1.978-5.46.485-7.586,5.241-12.22,8.244-18.1Zm-25.759,3.11c-.249-2.842-.605-6.453-2.569-8.211a1.675,1.675,0,0,0-.92-.484c-1.033,0-.885,5.826,3.489,8.695Zm10.867-1.586a7.372,7.372,0,0,0,1.7-4.98C47.248,38.877,46.748,41.379,46.636,42.881ZM25.159,87.767c.282,1.961,4.957,4.386,6.592,5.555a27.283,27.283,0,0,0,3.677,1.55,1.63,1.63,0,1,1-1.348,2.968c-1.23-.555-2.977-.927-4.252-1.885-.632-.45-2.494-1.528-3.981-2.6a1.581,1.581,0,0,1-.41.177,2.973,2.973,0,0,0-1.846,2.653c.178,2.848,2.026,2.785,10.8,7.285a1.632,1.632,0,0,1-.746,3.08c-.559,0,.028.189-10.068-4.85-1.646.518-2.248,2.866-.272,5.022.35.384.7.826,1.066,1.28,1.867,2.357,1.69,1.874,4.044,3.288a21.872,21.872,0,0,0,3.008,1.6,1.632,1.632,0,0,1-.618,3.14,10.838,10.838,0,0,1-3.154-1.413,1.466,1.466,0,0,1-.274.023c-1.121-.114-3.773.777-3.527,1.925.693,3.239,4.347,6.464,10.608,9.344,5.374,2.473,6.2,2.855,11.521,3.745,10.088,1.685,18.2,1.07,24.8-1.891a1.616,1.616,0,0,1,1.695,2.719c-.411.519-.729.352-.892.986-.332,1.282,1.172,2.027,2.528,1.879a6.158,6.158,0,0,0,3.165-1.558,14.9,14.9,0,0,0,4.827-9.024c.9-5.29-.471-12.312-1.364-13.736a2.232,2.232,0,0,0-1.677-1.142h-.018c-.84,0-1.541,1.4-1.974,3.95a1.589,1.589,0,0,1-.175.451c.005.026.013.051.019.077a1.63,1.63,0,0,1-3.193.662C71.06,100.271,64.695,89.5,58.743,77.492c-.694-1.414-1.558-2.876-2.694-3a2.714,2.714,0,0,0-2.5,2.133,8.382,8.382,0,0,0-.429,1.28c0,.037-.024.264-.026.276-.688,4.306.625,6.986,2.144,11.524.231.687.784,1.653,1.1,2.494a6.871,6.871,0,0,0,1.128,1.76,1.632,1.632,0,0,1-1.1,2.989c-5.5-.328-19.153-7.434-19.765-7.854-2.43-1.215-5.063-3.061-7.244-3.5-.021,0-.405-.04-.427-.045-2.527-.319-3.92,1.224-3.775,2.216Z" transform="translate(-3.06 4.42)" fill="#c6c6c8"/>
      <path id="Path_775" data-name="Path 775" d="M28.571,16.267l-5.736,2.639a1.631,1.631,0,1,1-1.363-2.963L27.21,13.3a1.63,1.63,0,1,1,1.361,2.963Z" transform="translate(45.866 14.036)" fill="#c6c6c8"/>
      <path id="Path_776" data-name="Path 776" d="M26.024,12.09a1.634,1.634,0,0,1-1.207-2.728L27.605,6.3a1.63,1.63,0,0,1,2.414,2.193c-2.574,2.61-2.787,3.6-3.995,3.6Z" transform="translate(36.535 5.357)" fill="#c6c6c8"/>
      <path id="Path_777" data-name="Path 777" d="M52.247,14.5a1.63,1.63,0,1,1,.7-3.184,16.931,16.931,0,0,1,4.585,1.726,1.632,1.632,0,0,1-.791,3.057C55.792,16.1,55.233,15.155,52.247,14.5Z" transform="translate(-49.151 11.831)" fill="#c6c6c8"/>
      <path id="Path_778" data-name="Path 778" d="M53.27,20.861l4.26-.276a1.629,1.629,0,1,1,.21,3.252c-.064,0-4.3.28-4.366.28a1.63,1.63,0,0,1-.1-3.256Z" transform="translate(-51.745 22.753)" fill="#c6c6c8"/>
      <path id="Path_779" data-name="Path 779" d="M28.323,20.2a1.63,1.63,0,0,1,0,3.261l-6.128.013a1.63,1.63,0,0,1,0-3.261Z" transform="translate(45.339 22.306)" fill="#c6c6c8"/>
    </g>
    <text id="Our_research_and_agile-led_methodology_of_developing_a_mobile_app_solution_not_only_limit_to_solving_the_problem.-4" data-name="Our research and agile-led methodology of developing
a mobile app solution not only limit to solving the problem." transform="translate(876 6272.512)" fill="#1a1818" font-size="18" font-family="Inter-Regular, Inter"><tspan x="0" y="0">Our research and agile-led methodology of developing</tspan><tspan x="0" y="21.6">a mobile app solution not only limit to solving the problem.</tspan></text>
    <path id="Path_807" data-name="Path 807" d="M17.935-25.455h5.382V-8.924a8.9,8.9,0,0,1-1.324,4.872A8.9,8.9,0,0,1,18.3-.8,12.438,12.438,0,0,1,12.765.36,12.468,12.468,0,0,1,7.221-.8,8.853,8.853,0,0,1,3.53-4.052,8.936,8.936,0,0,1,2.212-8.924V-25.455H7.594V-9.384A5.157,5.157,0,0,0,8.234-6.8a4.579,4.579,0,0,0,1.808,1.777,5.533,5.533,0,0,0,2.722.646,5.524,5.524,0,0,0,2.728-.646,4.59,4.59,0,0,0,1.8-1.777,5.157,5.157,0,0,0,.64-2.585Zm19.038,0V0H31.591V-25.455Zm19.274-1.193-8.2,30.476H43.483l8.2-30.476ZM78.48-25.455h5.382V-8.924a8.9,8.9,0,0,1-1.324,4.872A8.9,8.9,0,0,1,78.84-.8,12.438,12.438,0,0,1,73.31.36,12.468,12.468,0,0,1,67.766-.8a8.853,8.853,0,0,1-3.691-3.25,8.936,8.936,0,0,1-1.317-4.872V-25.455h5.382V-9.384a5.157,5.157,0,0,0,.64,2.585,4.579,4.579,0,0,0,1.808,1.777,5.533,5.533,0,0,0,2.722.646,5.524,5.524,0,0,0,2.728-.646A4.59,4.59,0,0,0,77.84-6.8a5.157,5.157,0,0,0,.64-2.585Zm18.7,0,5.133,8.675h.2l5.158-8.675h6.078l-7.768,12.727L113.924,0h-6.19l-5.22-8.688h-.2L97.1,0H90.931L98.9-12.727,91.08-25.455ZM11.236,40.274H2.212V14.819h9.1a13.537,13.537,0,0,1,6.612,1.523,10.389,10.389,0,0,1,4.269,4.369,14.45,14.45,0,0,1,1.5,6.811,14.554,14.554,0,0,1-1.5,6.836A10.382,10.382,0,0,1,17.9,38.745,13.683,13.683,0,0,1,11.236,40.274ZM7.594,35.662h3.418a8.628,8.628,0,0,0,4.021-.851,5.442,5.442,0,0,0,2.461-2.647,11.169,11.169,0,0,0,.827-4.642,11.053,11.053,0,0,0-.827-4.611,5.422,5.422,0,0,0-2.455-2.635,8.642,8.642,0,0,0-4.015-.845H7.594Zm23.923,4.611V14.819H48.669v4.437H36.9v6.065H47.786v4.437H36.9v6.078h11.82v4.437Zm39.1-18.134a3.145,3.145,0,0,0-1.28-2.337,5.073,5.073,0,0,0-3.07-.833,5.952,5.952,0,0,0-2.225.367,3.129,3.129,0,0,0-1.386,1.013,2.4,2.4,0,0,0-.479,1.467,2.065,2.065,0,0,0,.292,1.193,2.85,2.85,0,0,0,.876.876,6.258,6.258,0,0,0,1.293.634,12.633,12.633,0,0,0,1.566.454l2.287.547a16.131,16.131,0,0,1,3.058.994,9.288,9.288,0,0,1,2.411,1.529,6.428,6.428,0,0,1,1.585,2.138A6.817,6.817,0,0,1,76.122,33a7.035,7.035,0,0,1-1.187,4.046A7.563,7.563,0,0,1,71.554,39.7a13.544,13.544,0,0,1-5.313.938,13.955,13.955,0,0,1-5.363-.945,7.8,7.8,0,0,1-3.555-2.8,8.3,8.3,0,0,1-1.336-4.6h5.208a3.848,3.848,0,0,0,.74,2.132,3.965,3.965,0,0,0,1.752,1.28,6.819,6.819,0,0,0,2.492.429,6.5,6.5,0,0,0,2.38-.4,3.643,3.643,0,0,0,1.572-1.106,2.554,2.554,0,0,0,.559-1.628,2.131,2.131,0,0,0-.5-1.442,3.93,3.93,0,0,0-1.467-.994,15.151,15.151,0,0,0-2.355-.746l-2.772-.7a11.622,11.622,0,0,1-5.083-2.449,5.68,5.68,0,0,1-1.852-4.487,6.648,6.648,0,0,1,1.237-4.039,8.255,8.255,0,0,1,3.437-2.7,12.152,12.152,0,0,1,4.972-.969,11.8,11.8,0,0,1,4.953.969,7.832,7.832,0,0,1,3.3,2.7,7.136,7.136,0,0,1,1.218,4Zm18.342-7.321V40.274H83.576V14.819Zm25.166,8.228a5.671,5.671,0,0,0-.733-1.61,4.7,4.7,0,0,0-1.15-1.193,5.133,5.133,0,0,0-1.541-.752,6.577,6.577,0,0,0-1.908-.261,6.085,6.085,0,0,0-3.424.969,6.347,6.347,0,0,0-2.293,2.815,11.069,11.069,0,0,0-.82,4.506,11.356,11.356,0,0,0,.808,4.524,6.282,6.282,0,0,0,2.287,2.84,6.2,6.2,0,0,0,3.493.976,6.9,6.9,0,0,0,3.126-.653,4.641,4.641,0,0,0,1.989-1.846,5.54,5.54,0,0,0,.69-2.821l1.094.162h-6.562V26.651h10.652v3.207a11.153,11.153,0,0,1-1.417,5.761,9.6,9.6,0,0,1-3.9,3.7,13.2,13.2,0,0,1-11.982-.286,10.865,10.865,0,0,1-4.22-4.512,14.987,14.987,0,0,1-1.51-6.954,15.816,15.816,0,0,1,.9-5.525,11.729,11.729,0,0,1,2.529-4.12,10.956,10.956,0,0,1,3.791-2.573,12.284,12.284,0,0,1,4.686-.882,12.544,12.544,0,0,1,4.027.628,10.911,10.911,0,0,1,3.312,1.771,9.631,9.631,0,0,1,2.368,2.716,9.3,9.3,0,0,1,1.181,3.461Zm34.885-8.228V40.274H144.36L133.286,24.253H133.1V40.274h-5.382V14.819h4.723l10.987,16.009h.224V14.819Zm13.669,0V40.274H157.3V14.819Zm29.578,0V40.274h-4.648L176.533,24.253h-.186V40.274h-5.382V14.819h4.723l10.987,16.009h.224V14.819Zm25.166,8.228a5.671,5.671,0,0,0-.733-1.61,4.7,4.7,0,0,0-1.15-1.193A5.132,5.132,0,0,0,214,19.492a6.577,6.577,0,0,0-1.908-.261,6.085,6.085,0,0,0-3.424.969,6.347,6.347,0,0,0-2.293,2.815,11.069,11.069,0,0,0-.82,4.506,11.356,11.356,0,0,0,.808,4.524,6.282,6.282,0,0,0,2.287,2.84,6.2,6.2,0,0,0,3.493.976,6.9,6.9,0,0,0,3.126-.653,4.641,4.641,0,0,0,1.989-1.846,5.54,5.54,0,0,0,.69-2.821l1.094.162h-6.562V26.651h10.652v3.207a11.153,11.153,0,0,1-1.417,5.761,9.6,9.6,0,0,1-3.9,3.7,13.2,13.2,0,0,1-11.982-.286,10.865,10.865,0,0,1-4.22-4.512,14.987,14.987,0,0,1-1.51-6.954,15.816,15.816,0,0,1,.9-5.525,11.729,11.729,0,0,1,2.529-4.12,10.956,10.956,0,0,1,3.791-2.573A12.284,12.284,0,0,1,212,14.471a12.544,12.544,0,0,1,4.027.628,10.911,10.911,0,0,1,3.312,1.771,9.631,9.631,0,0,1,2.368,2.716,9.3,9.3,0,0,1,1.181,3.461Z" transform="translate(876 6190)" fill="url(#linear-gradient-14)"/>
    <g id="Group_1352" data-name="Group 1352" transform="translate(768.716 6172.695)">
      <path id="Path_784" data-name="Path 784" d="M164.9,27.816H157.89a1.758,1.758,0,0,1,0-3.516H164.9a1.758,1.758,0,0,1,0,3.516Z" transform="translate(-156.132 -24.3)" fill="#e0e1e3"/>
    </g>
    <g id="Group_1370" data-name="Group 1370" transform="translate(0 -1499)">
      <g id="Group_1351" data-name="Group 1351" transform="translate(763.82 7703.109)">
        <circle id="Ellipse_9" data-name="Ellipse 9" cx="1.762" cy="1.762" r="1.762" fill="#c6c6c8"/>
        <path id="Path_781" data-name="Path 781" d="M181.5,161.867h-9.481a1.758,1.758,0,1,1,0-3.516H181.5a1.758,1.758,0,0,1,0,3.516Z" transform="translate(-162.051 -158.347)" fill="#c6c6c8"/>
      </g>
      <path id="Path_782" data-name="Path 782" d="M154.634,190.112h-17.7a1.758,1.758,0,0,1,0-3.516h17.7a1.758,1.758,0,0,1,0,3.516Z" transform="translate(628.632 7523.137)" fill="#c6c6c8"/>
      <path id="Path_783" data-name="Path 783" d="M126.785,137.329H98.766a6.142,6.142,0,0,1-6.135-6.135V103.175a6.142,6.142,0,0,1,6.135-6.135,1.758,1.758,0,0,1,0,3.516,2.622,2.622,0,0,0-2.619,2.619v28.019a2.622,2.622,0,0,0,2.619,2.619h28.019a2.622,2.622,0,0,0,2.619-2.619V103.175a2.622,2.622,0,0,0-2.619-2.619H107.43a1.758,1.758,0,0,1,0-3.516h19.355a6.142,6.142,0,0,1,6.135,6.135v28.019A6.142,6.142,0,0,1,126.785,137.329Z" transform="translate(661.202 7591.704)" fill="#c6c6c8"/>
      <g id="Group_1353" data-name="Group 1353" transform="translate(798.124 7673.453)">
        <circle id="Ellipse_10" data-name="Ellipse 10" cx="1.731" cy="1.731" r="1.731" fill="#c6c6c8"/>
      </g>
      <path id="Path_785" data-name="Path 785" d="M291.32,312.6a1.757,1.757,0,0,1-1.521-.874,8.437,8.437,0,0,1-1.141-4.242v-.231a1.758,1.758,0,0,1,3.516,0v.231a4.916,4.916,0,0,0,.664,2.473,1.758,1.758,0,0,1-1.518,2.642Z" transform="translate(511.119 7432.102)" fill="#c6c6c8"/>
      <path id="Path_786" data-name="Path 786" d="M129.442,94.6,116.883,82.046h2.231a5.508,5.508,0,0,0,0-11.016h-1.722V70.022a1.758,1.758,0,0,0-3.516,0V71.03H103.593a5.561,5.561,0,0,0-3.969,1.695,5.3,5.3,0,0,0-1.545,3.829v1.964H93.007a1.757,1.757,0,0,0-1.748,1.941,1.807,1.807,0,0,0-.01.183v29.78a6.07,6.07,0,0,1-6.063,6.063h-54.8a6.07,6.07,0,0,1-6.063-6.063V9.579a6.07,6.07,0,0,1,6.063-6.063h6.844l.793,4.142a8.257,8.257,0,0,0,8.1,6.7H69.45a8.257,8.257,0,0,0,8.1-6.7l.793-4.141h6.844a6.07,6.07,0,0,1,6.063,6.063v35.94a1.758,1.758,0,0,0,3.516,0V9.579A9.59,9.59,0,0,0,85.186,0h-54.8A9.59,9.59,0,0,0,20.81,9.579V110.421A9.59,9.59,0,0,0,30.389,120h54.8a9.59,9.59,0,0,0,9.579-9.579V82.034h3.314V92.066a5.508,5.508,0,1,0,11.016,0V89.835l12.559,12.559.019.019a5.7,5.7,0,0,0,3.928,1.579,5.431,5.431,0,0,0,3.821-1.576l.022-.021a5.508,5.508,0,0,0,0-7.789ZM74.763,3.516,74.1,7a4.737,4.737,0,0,1-4.646,3.842H46.125A4.737,4.737,0,0,1,41.479,7l-.667-3.48Zm52.2,96.382a2.079,2.079,0,0,1-2.839,0L108.579,84.348a1.758,1.758,0,0,0-3,1.243v6.475a1.992,1.992,0,0,1-3.984,0V76.538c0-.012,0-.024,0-.036a1.8,1.8,0,0,1,.536-1.312,2.122,2.122,0,0,1,1.45-.644h15.534a1.992,1.992,0,0,1,0,3.984h-6.475a1.758,1.758,0,0,0-1.243,3l15.56,15.56a1.992,1.992,0,0,1,.011,2.806Z" transform="translate(716.19 7666)" fill="#c6c6c8"/>
      <path id="Path_787" data-name="Path 787" d="M290.416,261.767a1.758,1.758,0,0,1-1.758-1.758v-3.75a1.758,1.758,0,1,1,3.516,0v3.75A1.758,1.758,0,0,1,290.416,261.767Z" transform="translate(511.119 7471.147)" fill="#c6c6c8"/>
      <path id="Path_788" data-name="Path 788" d="M419.651,247.527a1.758,1.758,0,0,1-1.758-1.758v-3.75a1.758,1.758,0,1,1,3.516,0v3.75A1.758,1.758,0,0,1,419.651,247.527Z" transform="translate(412.173 7482.05)" fill="#c6c6c8"/>
      <path id="Path_789" data-name="Path 789" d="M294.157,215.242a1.758,1.758,0,0,1-1.524-2.63,8.454,8.454,0,0,1,3.347-3.258,1.758,1.758,0,0,1,1.662,3.1,4.944,4.944,0,0,0-1.957,1.9A1.756,1.756,0,0,1,294.157,215.242Z" transform="translate(508.254 7505.873)" fill="#c6c6c8"/>
      <path id="Path_790" data-name="Path 790" d="M394.474,210.286a1.747,1.747,0,0,1-.923-.263,4.916,4.916,0,0,0-2.588-.733h-.051a1.758,1.758,0,0,1,0-3.516h.051a8.426,8.426,0,0,1,4.437,1.259,1.758,1.758,0,0,1-.926,3.253Z" transform="translate(434.176 7508.454)" fill="#c6c6c8"/>
      <path id="Path_791" data-name="Path 791" d="M343.663,209.29h-3.75a1.758,1.758,0,0,1,0-3.516h3.75a1.758,1.758,0,0,1,0,3.516Z" transform="translate(473.223 7508.454)" fill="#c6c6c8"/>
      <g id="Group_1356" data-name="Group 1356" transform="translate(756.405 7742.512)">
        <g id="Group_1354" data-name="Group 1354" transform="translate(31.63)">
          <path id="Path_792" data-name="Path 792" d="M240.316,358.093a1.758,1.758,0,0,1-1.758-1.758V328.209a1.758,1.758,0,0,1,3.516,0v28.127A1.758,1.758,0,0,1,240.316,358.093Z" transform="translate(-238.558 -326.451)" fill="#c6c6c8"/>
        </g>
        <g id="Group_1355" data-name="Group 1355">
          <path id="Path_793" data-name="Path 793" d="M114.975,358.093h-.019a11.226,11.226,0,0,1-6.128-1.759c-3.515-2.246-5.224-5.115-5.224-8.771V328.209a1.758,1.758,0,0,1,3.516,0v19.354c0,2.459,1.077,4.2,3.6,5.808a7.764,7.764,0,0,0,4.241,1.206,8.563,8.563,0,0,0,3.853-.875c2.916-1.469,4.334-3.484,4.334-6.16V328.209a1.758,1.758,0,0,1,3.516,0v19.334c0,4.019-2.167,7.234-6.268,9.3A11.933,11.933,0,0,1,114.975,358.093Z" transform="translate(-103.604 -326.451)" fill="#c6c6c8"/>
        </g>
      </g>
    </g>
    <path id="Path_810" data-name="Path 810" d="M2.212,1.262v-26.7H7.857V-3.392H19.3V1.262Zm30.138,0H26.3l9.217-26.7h7.275L52,1.262H45.948l-6.688-20.6h-.209ZM31.972-9.233H46.261v4.406H31.972Zm43.762-16.2h5.645V-8.1a9.34,9.34,0,0,1-1.388,5.11A9.331,9.331,0,0,1,76.112.421a13.046,13.046,0,0,1-5.8,1.219A13.077,13.077,0,0,1,64.5.421a9.286,9.286,0,0,1-3.872-3.409A9.373,9.373,0,0,1,59.242-8.1V-25.438h5.645V-8.581a5.409,5.409,0,0,0,.671,2.712A4.8,4.8,0,0,0,67.456-4a5.8,5.8,0,0,0,2.855.678A5.794,5.794,0,0,0,73.172-4a4.815,4.815,0,0,0,1.89-1.864,5.409,5.409,0,0,0,.671-2.712Zm36.657,0v26.7h-4.876L95.9-15.543h-.2v16.8H90.058v-26.7h4.954L106.537-8.646h.235V-25.438Zm32.25,9.347h-5.71a5.649,5.649,0,0,0-.639-1.975,5.036,5.036,0,0,0-1.239-1.48,5.463,5.463,0,0,0-1.74-.939,6.742,6.742,0,0,0-2.132-.326,6.367,6.367,0,0,0-3.611,1.023,6.626,6.626,0,0,0-2.386,2.972,11.826,11.826,0,0,0-.847,4.726,11.922,11.922,0,0,0,.854,4.8,6.461,6.461,0,0,0,2.392,2.933,6.427,6.427,0,0,0,3.559.991,7.105,7.105,0,0,0,2.105-.3,5.451,5.451,0,0,0,1.727-.88,5.037,5.037,0,0,0,1.258-1.414,5.619,5.619,0,0,0,.7-1.9l5.71.026a10.349,10.349,0,0,1-1.1,3.54,10.691,10.691,0,0,1-2.36,3.038,11.045,11.045,0,0,1-3.52,2.112,12.893,12.893,0,0,1-4.609.776A12.563,12.563,0,0,1,126.669.01a11.42,11.42,0,0,1-4.433-4.68,15.666,15.666,0,0,1-1.623-7.418,15.542,15.542,0,0,1,1.643-7.431,11.49,11.49,0,0,1,4.459-4.674,12.535,12.535,0,0,1,6.336-1.61,13.754,13.754,0,0,1,4.309.652,10.99,10.99,0,0,1,3.526,1.9,9.949,9.949,0,0,1,2.51,3.044A11.4,11.4,0,0,1,144.641-16.09Zm8.093,17.352v-26.7h5.645v11.016h11.459V-25.438h5.632v26.7h-5.632V-9.767H158.378V1.262Zm49.99,0-7.64-26.7h6.166L205.67-6.886h.222l4.876-18.551h5.28L220.91-6.847h.235l4.419-18.591h6.166l-7.64,26.7h-5.5L213.5-16.194H213.3L208.225,1.262Zm41.7-26.7v26.7H238.78v-26.7Zm7.676,4.654v-4.654h21.928v4.654h-8.174V1.262h-5.58V-20.783ZM281.691,1.262v-26.7h5.645v11.016H298.8V-25.438h5.632v26.7H298.8V-9.767H287.336V1.262ZM2.212,16.806H9.174l7.353,17.939h.313l7.353-17.939h6.962v26.7H25.679V26.127h-.222l-6.91,17.248H14.819L7.909,26.062H7.688V43.505H2.212Zm42.223,26.7H38.387l9.217-26.7h7.275l9.2,26.7H58.033l-6.688-20.6h-.209Zm-.378-10.495H58.346v4.406H44.058Zm32.915-16.2v26.7H71.328v-26.7Zm31.025,0v26.7h-4.876L91.505,26.7h-.2v16.8H85.665v-26.7h4.954L102.144,33.6h.235V16.806Zm7.676,4.654V16.806H137.6V21.46h-8.174V43.505h-5.58V21.46ZM146.58,43.505h-6.049l9.217-26.7h7.275l9.2,26.7h-6.049l-6.688-20.6h-.209ZM146.2,33.011H160.49v4.406H146.2Zm32.915-16.2v26.7h-5.645v-26.7Zm31.025,0v26.7h-4.876L193.65,26.7h-.2v16.8h-5.645v-26.7h4.954L204.288,33.6h.235V16.806Zm32.25,9.347h-5.71a5.649,5.649,0,0,0-.639-1.975A5.036,5.036,0,0,0,234.8,22.7a5.463,5.463,0,0,0-1.74-.939,6.742,6.742,0,0,0-2.132-.326,6.367,6.367,0,0,0-3.611,1.023,6.626,6.626,0,0,0-2.386,2.972,11.826,11.826,0,0,0-.847,4.726,11.922,11.922,0,0,0,.854,4.8,6.177,6.177,0,0,0,5.951,3.924,7.105,7.105,0,0,0,2.105-.3,5.451,5.451,0,0,0,1.727-.88,5.037,5.037,0,0,0,1.258-1.415,5.619,5.619,0,0,0,.7-1.9l5.71.026a10.349,10.349,0,0,1-1.1,3.54,10.692,10.692,0,0,1-2.36,3.038,11.045,11.045,0,0,1-3.52,2.112,12.893,12.893,0,0,1-4.609.776,12.563,12.563,0,0,1-6.382-1.617,11.42,11.42,0,0,1-4.433-4.68,15.667,15.667,0,0,1-1.623-7.418,15.542,15.542,0,0,1,1.643-7.431,11.49,11.49,0,0,1,4.459-4.674,12.535,12.535,0,0,1,6.336-1.61,13.754,13.754,0,0,1,4.309.652,10.99,10.99,0,0,1,3.526,1.9,9.949,9.949,0,0,1,2.51,3.044A11.4,11.4,0,0,1,242.391,26.153Zm8.093,17.352v-26.7h17.991V21.46H256.129v6.362h11.42v4.654h-11.42v6.375h12.4v4.654Zm47.161.391a10.675,10.675,0,0,1-4.772-.991,7.433,7.433,0,0,1-3.083-2.692,6.964,6.964,0,0,1-1.076-3.8,5.968,5.968,0,0,1,.626-2.777,8,8,0,0,1,1.747-2.236,23.808,23.808,0,0,1,2.607-2.04l5.176-3.4a4.837,4.837,0,0,0,1.473-1.349,2.748,2.748,0,0,0,.469-1.545,2.112,2.112,0,0,0-.639-1.473,2.332,2.332,0,0,0-1.812-.665,2.578,2.578,0,0,0-1.356.345,2.494,2.494,0,0,0-.893.9,2.423,2.423,0,0,0-.319,1.232,3.522,3.522,0,0,0,.469,1.695,12.029,12.029,0,0,0,1.252,1.819q.782.958,1.708,2.066l12.659,14.523h-5.788l-10.56-11.759q-1.043-1.186-2.079-2.484a13.924,13.924,0,0,1-1.727-2.764,7.384,7.384,0,0,1-.691-3.188,6.8,6.8,0,0,1,.906-3.494,6.544,6.544,0,0,1,2.549-2.457,7.81,7.81,0,0,1,3.833-.906,7.484,7.484,0,0,1,3.7.867,6.227,6.227,0,0,1,2.4,2.294,6.065,6.065,0,0,1,.841,3.135,6.454,6.454,0,0,1-.932,3.422,9.494,9.494,0,0,1-2.614,2.744l-5.449,3.924a6.218,6.218,0,0,0-1.636,1.649,3.041,3.041,0,0,0-.528,1.61,3.172,3.172,0,0,0,.469,1.708A3.259,3.259,0,0,0,295.9,39a4.41,4.41,0,0,0,2.021.437,6.5,6.5,0,0,0,2.783-.645,8.272,8.272,0,0,0,2.5-1.838,9.173,9.173,0,0,0,1.806-2.836,9.447,9.447,0,0,0,.678-3.637h4.6a16.8,16.8,0,0,1-.535,4.413,11.906,11.906,0,0,1-1.486,3.416,9.374,9.374,0,0,1-2.177,2.379q-.391.248-.756.469t-.756.469a9.446,9.446,0,0,1-3.318,1.734A12.869,12.869,0,0,1,297.645,43.9ZM345.38,24.484a3.3,3.3,0,0,0-1.343-2.451,5.321,5.321,0,0,0-3.22-.873,6.243,6.243,0,0,0-2.334.385,3.282,3.282,0,0,0-1.454,1.063,2.519,2.519,0,0,0-.5,1.538,2.166,2.166,0,0,0,.306,1.252,2.989,2.989,0,0,0,.919.919,6.565,6.565,0,0,0,1.356.665,13.25,13.25,0,0,0,1.643.476l2.4.574a16.919,16.919,0,0,1,3.207,1.043,9.741,9.741,0,0,1,2.529,1.6,6.742,6.742,0,0,1,1.662,2.242,7.151,7.151,0,0,1,.606,2.959,7.379,7.379,0,0,1-1.245,4.243,7.932,7.932,0,0,1-3.546,2.777,14.206,14.206,0,0,1-5.573.984,14.638,14.638,0,0,1-5.625-.991,8.187,8.187,0,0,1-3.729-2.94,8.7,8.7,0,0,1-1.4-4.83H335.5a4.036,4.036,0,0,0,.776,2.236,4.159,4.159,0,0,0,1.838,1.343,7.152,7.152,0,0,0,2.614.45,6.813,6.813,0,0,0,2.5-.417,3.821,3.821,0,0,0,1.649-1.16,2.679,2.679,0,0,0,.587-1.708,2.236,2.236,0,0,0-.528-1.512,4.123,4.123,0,0,0-1.538-1.043,15.89,15.89,0,0,0-2.47-.782l-2.907-.73a12.19,12.19,0,0,1-5.332-2.568,5.958,5.958,0,0,1-1.943-4.706,6.973,6.973,0,0,1,1.3-4.237,8.659,8.659,0,0,1,3.6-2.829,12.746,12.746,0,0,1,5.215-1.017,12.382,12.382,0,0,1,5.2,1.017,8.215,8.215,0,0,1,3.461,2.829,7.485,7.485,0,0,1,1.278,4.2Zm30.086-7.679h5.645V34.145a9.077,9.077,0,0,1-5.267,8.52,14.446,14.446,0,0,1-11.616,0,9.066,9.066,0,0,1-5.254-8.52V16.806h5.645V33.662a5.409,5.409,0,0,0,.671,2.712,4.8,4.8,0,0,0,1.9,1.864,6.365,6.365,0,0,0,5.717,0,4.814,4.814,0,0,0,1.89-1.864,5.409,5.409,0,0,0,.671-2.712Zm14.324,26.7v-26.7h10.534A10.765,10.765,0,0,1,405.5,17.96a7.951,7.951,0,0,1,3.266,3.194,9.555,9.555,0,0,1,1.128,4.7,9.388,9.388,0,0,1-1.147,4.693,7.921,7.921,0,0,1-3.318,3.168,11.208,11.208,0,0,1-5.247,1.134h-6.714V30.325h5.8a5.683,5.683,0,0,0,2.692-.567,3.716,3.716,0,0,0,1.59-1.577,5.392,5.392,0,0,0,0-4.654,3.653,3.653,0,0,0-1.6-1.551,5.868,5.868,0,0,0-2.712-.554h-3.807V43.505Zm27.818,0v-26.7h10.534a10.765,10.765,0,0,1,5.176,1.154,7.951,7.951,0,0,1,3.266,3.194,9.555,9.555,0,0,1,1.128,4.7,9.388,9.388,0,0,1-1.147,4.693,7.921,7.921,0,0,1-3.318,3.168A11.209,11.209,0,0,1,428,34.849h-6.714V30.325h5.8a5.683,5.683,0,0,0,2.692-.567,3.716,3.716,0,0,0,1.59-1.577,5.392,5.392,0,0,0,0-4.654,3.653,3.653,0,0,0-1.6-1.551,5.868,5.868,0,0,0-2.712-.554h-3.807V43.505Zm52.353-13.35a15.491,15.491,0,0,1-1.649,7.431,11.493,11.493,0,0,1-4.485,4.674,13.415,13.415,0,0,1-12.757-.007,11.508,11.508,0,0,1-4.472-4.68,15.511,15.511,0,0,1-1.643-7.418,15.541,15.541,0,0,1,1.643-7.431,11.463,11.463,0,0,1,4.472-4.674,13.439,13.439,0,0,1,12.757,0,11.493,11.493,0,0,1,4.485,4.674A15.491,15.491,0,0,1,469.961,30.155Zm-5.723,0a12.01,12.01,0,0,0-.841-4.771,6.5,6.5,0,0,0-2.366-2.946,6.857,6.857,0,0,0-7.144,0,6.5,6.5,0,0,0-2.366,2.946,12.009,12.009,0,0,0-.841,4.771,12.009,12.009,0,0,0,.841,4.771,6.5,6.5,0,0,0,2.366,2.946,6.857,6.857,0,0,0,7.144,0,6.5,6.5,0,0,0,2.366-2.946A12.009,12.009,0,0,0,464.238,30.155Zm13.933,13.35v-26.7H488.7a11.425,11.425,0,0,1,5.169,1.076,7.6,7.6,0,0,1,3.272,3.038,9.089,9.089,0,0,1,1.128,4.609,8.711,8.711,0,0,1-1.147,4.569,7.433,7.433,0,0,1-3.318,2.927,12.3,12.3,0,0,1-5.247,1.017h-7.053V29.5h6.14a7.051,7.051,0,0,0,2.686-.443,3.227,3.227,0,0,0,1.6-1.33,4.242,4.242,0,0,0,.528-2.2,4.414,4.414,0,0,0-.528-2.242,3.35,3.35,0,0,0-1.6-1.388,6.7,6.7,0,0,0-2.705-.476h-3.807V43.505Zm14.419-12.15,6.636,12.15h-6.232L486.5,31.355Zm12.695-9.895V16.806h21.928V21.46h-8.174V43.505h-5.58V21.46Z" transform="translate(708.788 6653.873)" fill="#f69110"/>
    <line id="Line_2" data-name="Line 2" x1="70" transform="translate(807.5 6560.675)" fill="none" stroke="#1a1818" stroke-miterlimit="10" stroke-width="1"/>
    <text id="Sprint_1" data-name="Sprint 1" transform="translate(908.736 6505.497)" fill="#1a1818" font-size="18" font-family="Inter-Regular, Inter"><tspan x="0" y="0">Sprint 1</tspan></text>
    <text id="Sprint_2" data-name="Sprint 2" transform="translate(1041.774 6505.497)" fill="#1a1818" font-size="18" font-family="Inter-Regular, Inter"><tspan x="0" y="0">Sprint 2</tspan></text>
    <text id="Sprint_3" data-name="Sprint 3" transform="translate(1166.792 6505.497)" fill="#1a1818" font-size="18" font-family="Inter-Regular, Inter"><tspan x="0" y="0">Sprint 3</tspan></text>
    <path id="Polygon_13" data-name="Polygon 13" d="M6,0l6,10H0Z" transform="translate(887.05 6554.672) rotate(90)" fill="url(#linear-gradient)"/>
    <path id="Polygon_14" data-name="Polygon 14" d="M6,0l6,10H0Z" transform="translate(888.05 6509.997) rotate(180)" fill="url(#linear-gradient)"/>
    <path id="Path_755" data-name="Path 755" d="M625.082,539.775a58.687,58.687,0,1,1,58.686,58.686H625.71" transform="translate(388.713 5962.222)" fill="none" stroke="#1a1818" stroke-miterlimit="10" stroke-width="0.525" stroke-dasharray="6.294"/>
    <path id="Path_756" data-name="Path 756" d="M552.421,539.775a58.687,58.687,0,1,1,58.686,58.686H541.513" transform="translate(593.206 5962.222)" fill="none" stroke="#1a1818" stroke-miterlimit="10" stroke-width="0.525" stroke-dasharray="6.294"/>
    <circle id="Ellipse_12" data-name="Ellipse 12" cx="6" cy="6" r="6" transform="translate(1128.719 6554.322)" fill="url(#linear-gradient)"/>
    <circle id="Ellipse_13" data-name="Ellipse 13" cx="6" cy="6" r="6" transform="translate(1007.795 6554.322)" fill="url(#linear-gradient)"/>
    <g id="Group_1360" data-name="Group 1360" transform="translate(49.367 -535.35)">
      <text id="Final_Quality_Testing" data-name="Final Quality
Testing" transform="translate(1283.609 7136.765)" fill="#1a1818" font-size="16" font-family="Inter-Regular, Inter"><tspan x="-46.341" y="0">Final Quality</tspan><tspan x="-27.705" y="21.6">Testing</tspan></text>
      <path id="Path_758" data-name="Path 758" d="M142.255,628.789c.638-.638,372.873.659,373.474,0,28.322-30.994,5.162-81.054-36.823-81.054H384.753" transform="translate(831.38 6547.937)" fill="none" stroke="#1a1818" stroke-linecap="round" stroke-miterlimit="10" stroke-width="0.525" stroke-dasharray="6.294"/>
      <circle id="Ellipse_14" data-name="Ellipse 14" cx="6" cy="6" r="6" transform="translate(1206.133 7089.672)" fill="url(#linear-gradient)"/>
    </g>
    <path id="Path_811" data-name="Path 811" d="M-98.052-13.091V0h-2.768V-13.091Zm5.522,0h3.413l3.605,8.8h.153l3.605-8.8h3.413V0h-2.685V-8.521h-.109L-84.521-.064h-1.828l-3.388-8.489h-.109V0H-92.53ZM-72.824,0V-13.091h5.165a5.278,5.278,0,0,1,2.538.566,3.9,3.9,0,0,1,1.6,1.566,4.685,4.685,0,0,1,.553,2.3,4.6,4.6,0,0,1-.562,2.3A3.884,3.884,0,0,1-65.157-4.8a5.5,5.5,0,0,1-2.573.556h-3.292V-6.462h2.844a2.786,2.786,0,0,0,1.32-.278,1.822,1.822,0,0,0,.78-.773,2.428,2.428,0,0,0,.259-1.141A2.4,2.4,0,0,0-66.078-9.8a1.791,1.791,0,0,0-.783-.761,2.877,2.877,0,0,0-1.33-.272h-1.866V0Zm14.9,0V-13.091h2.768V-2.282h5.612V0Zm13.454,0V-13.091h8.821v2.282H-41.7V-7.69h5.6v2.282h-5.6v3.126h6.079V0ZM-30.2-13.091h3.413l3.605,8.8h.153l3.605-8.8h3.413V0H-18.7V-8.521h-.109L-22.2-.064h-1.828l-3.388-8.489h-.109V0H-30.2ZM-10.5,0V-13.091h8.821v2.282H-7.731V-7.69h5.6v2.282h-5.6v3.126h6.079V0ZM14.717-13.091V0H12.327l-5.7-8.239h-.1V0H3.768V-13.091H6.2l5.651,8.233h.115v-8.233Zm5.023,2.282v-2.282H30.492v2.282H26.484V0H23.749V-10.809ZM36.155,0H33.189l4.519-13.091h3.567L45.788,0H42.822L39.542-10.1h-.1Zm-.185-5.146h7.006v2.161H35.969Zm12.521-5.663v-2.282H59.242v2.282H55.234V0H52.5V-10.809Zm18.536-2.282V0H64.259V-13.091ZM84.579-6.545A7.6,7.6,0,0,1,83.77-2.9a5.635,5.635,0,0,1-2.2,2.292,6.211,6.211,0,0,1-3.123.789,6.2,6.2,0,0,1-3.132-.793,5.642,5.642,0,0,1-2.192-2.295,7.605,7.605,0,0,1-.805-3.637,7.62,7.62,0,0,1,.805-3.643,5.621,5.621,0,0,1,2.192-2.292,6.219,6.219,0,0,1,3.132-.789,6.211,6.211,0,0,1,3.123.789,5.635,5.635,0,0,1,2.2,2.292A7.6,7.6,0,0,1,84.579-6.545Zm-2.806,0a5.888,5.888,0,0,0-.412-2.339A3.186,3.186,0,0,0,80.2-10.33a3.113,3.113,0,0,0-1.751-.492,3.113,3.113,0,0,0-1.751.492,3.186,3.186,0,0,0-1.16,1.445,5.888,5.888,0,0,0-.412,2.339,5.888,5.888,0,0,0,.412,2.339A3.186,3.186,0,0,0,76.7-2.761a3.113,3.113,0,0,0,1.751.492A3.113,3.113,0,0,0,80.2-2.761a3.186,3.186,0,0,0,1.16-1.445A5.888,5.888,0,0,0,81.772-6.545Zm19.041-6.545V0H98.423l-5.7-8.239h-.1V0H89.864V-13.091h2.429l5.651,8.233h.115v-8.233Z" transform="translate(1057 6594.82)" fill="url(#linear-gradient-20)"/>
    <path id="Polygon_15" data-name="Polygon 15" d="M6,0l6,10H0Z" transform="translate(1019.795 6509.997) rotate(180)" fill="url(#linear-gradient)"/>
    <path id="Polygon_16" data-name="Polygon 16" d="M6,0l6,10H0Z" transform="translate(1151.795 6509.997) rotate(180)" fill="url(#linear-gradient)"/>
    <path id="Polygon_17" data-name="Polygon 17" d="M6,0l6,10H0Z" transform="translate(1020.002 6647.568) rotate(-90)" fill="url(#linear-gradient)"/>
    <circle id="Ellipse_17" data-name="Ellipse 17" cx="6" cy="6" r="6" transform="translate(669.5 5482.322)" fill="url(#linear-gradient)"/>
  </g>
</svg>
