<svg xmlns="http://www.w3.org/2000/svg" xmlns:xlink="http://www.w3.org/1999/xlink" width="13.8" height="30" viewBox="0 0 13.8 30">
  <defs>
    <linearGradient id="linear-gradient" y1="0.5" x2="1" y2="0.5" gradientUnits="objectBoundingBox">
      <stop offset="0" stop-color="#00c0ff"/>
      <stop offset="1" stop-color="#5558ff"/>
    </linearGradient>
  </defs>
  <path id="smart-watch" d="M31.147,10.841c-.077,0-10.034-.011-10.034-.011a2,2,0,0,0-1.993,1.993V25.177a2,2,0,0,0,1.993,1.993s9.957-.006,10.034-.011a2,2,0,0,0,1.773-1.982V12.823a2,2,0,0,0-1.773-1.982Zm-9.97,7.918h1.189l.943-2.3a.538.538,0,0,1,1.007.054l.911,3.07.7-2.014a.539.539,0,0,1,.964-.1l.782,1.291h1.88a.536.536,0,0,1,0,1.071H27.37c-.411.036-.623-.566-.809-.83l-.868,2.507a.536.536,0,0,1-1.018-.021l-.954-3.209-.5,1.221a.537.537,0,0,1-.493.332H21.177a.536.536,0,1,1,0-1.071Zm4.184,5.5a.659.659,0,1,1,.659.659.659.659,0,0,1-.659-.659Zm5.545-7.789a9.519,9.519,0,0,1-1.468,1.489.529.529,0,0,1-.348.129.534.534,0,0,1-.348-.134A12.406,12.406,0,0,1,27.3,16.5a1.3,1.3,0,0,1,1.789-1.87,1.3,1.3,0,0,1,1.816,1.832ZM21.118,9.759l.911-4.484A1.594,1.594,0,0,1,23.588,4h4.864a1.594,1.594,0,0,1,1.559,1.275l.911,4.484h-9.8Zm9.8,18.482-.911,4.484A1.594,1.594,0,0,1,28.452,34H23.588a1.594,1.594,0,0,1-1.559-1.275l-.911-4.484h9.8ZM30.07,15.5c.1.1-.048.359-.075.412a7.1,7.1,0,0,1-.9.921,8.775,8.775,0,0,1-.927-.954c-.021-.027-.177-.257-.059-.38a.218.218,0,0,1,.268-.032c.27.146.665.476.98.257l.445-.257a.219.219,0,0,1,.268.032Z" transform="translate(-19.12 -4)" fill="url(#linear-gradient)" style="mix-blend-mode: luminosity;isolation: isolate"/>
</svg>
