<svg id="Group_45541" data-name="Group 45541" xmlns="http://www.w3.org/2000/svg" width="40.453" height="40.453" viewBox="0 0 40.453 40.453">
  <rect id="Rectangle_1338" data-name="Rectangle 1338" width="40.453" height="40.453" rx="2.881" transform="translate(40.453 0) rotate(90)" fill="#6f6f6f"/>
  <path id="Path_37619" data-name="Path 37619" d="M538.079-3.288a3.424,3.424,0,0,1-.371,1.623A3.409,3.409,0,0,1,536.69-.5a4.731,4.731,0,0,1-1.5.72,6.584,6.584,0,0,1-1.815.246h-7.041V-14.1h7.8a2.905,2.905,0,0,1,1.373.327,3.434,3.434,0,0,1,1.047.852,3.941,3.941,0,0,1,.669,1.19,3.988,3.988,0,0,1,.235,1.344,3.955,3.955,0,0,1-.533,2,3.231,3.231,0,0,1-1.561,1.385,3.751,3.751,0,0,1,1.98,1.326A3.808,3.808,0,0,1,538.079-3.288Zm-8.911-8.4v3.677h3.78a1.672,1.672,0,0,0,1.22-.5,1.807,1.807,0,0,0,.5-1.352,1.88,1.88,0,0,0-.463-1.337,1.5,1.5,0,0,0-1.139-.492Zm6.057,7.864a2.142,2.142,0,0,0-.132-.749,2.187,2.187,0,0,0-.36-.628,1.7,1.7,0,0,0-.536-.419,1.475,1.475,0,0,0-.676-.154h-4.353v3.838h4.209a1.836,1.836,0,0,0,.727-.143,1.78,1.78,0,0,0,.588-.4,2,2,0,0,0,.389-.606A1.917,1.917,0,0,0,535.225-3.82Z" transform="translate(-516.725 27.148)" fill="#fff"/>
  <path id="Path_37620" data-name="Path 37620" d="M535.2-2.276a5.756,5.756,0,0,1-2.266-.43,5.114,5.114,0,0,1-2.835-2.872,5.521,5.521,0,0,1-.386-2.05,5.758,5.758,0,0,1,.379-2.1,5.107,5.107,0,0,1,2.832-2.916,5.831,5.831,0,0,1,2.3-.437,5.672,5.672,0,0,1,2.277.437,5.4,5.4,0,0,1,3.144,5.41,2.163,2.163,0,0,1-.051.4h-8.055a3.134,3.134,0,0,0,.3,1.095,2.715,2.715,0,0,0,.617.815,2.634,2.634,0,0,0,.856.514,2.756,2.756,0,0,0,.991.18,3.045,3.045,0,0,0,1.5-.389,2.055,2.055,0,0,0,.966-1.021L540.052-5a4.652,4.652,0,0,1-1.84,1.958A5.706,5.706,0,0,1,535.2-2.276ZM537.9-8.56a2.771,2.771,0,0,0-.867-1.881,2.64,2.64,0,0,0-1.859-.705,2.694,2.694,0,0,0-1.006.187,2.591,2.591,0,0,0-.823.529,2.668,2.668,0,0,0-.588.815,2.807,2.807,0,0,0-.268,1.054Z" transform="translate(-507.709 29.893)" fill="#fff"/>
  <path id="Path_37621" data-name="Path 37621" d="M530.249-13.917h6.971v1.73h-6.971Z" transform="translate(-506.265 27.651)" fill="#fff"/>
</svg>
