<svg id="Group_45539" data-name="Group 45539" xmlns="http://www.w3.org/2000/svg" width="40.453" height="40.453" viewBox="0 0 40.453 40.453">
  <rect id="Rectangle_1336" data-name="Rectangle 1336" width="40.453" height="40.453" rx="2.881" transform="translate(40.453 0) rotate(90)" fill="#6f6f6f"/>
  <path id="Path_37616" data-name="Path 37616" d="M573.032-22.234h3.915V-9.65h-3.915Zm1.958-6.255a2.271,2.271,0,0,1,2.27,2.266,2.271,2.271,0,0,1-2.27,2.27,2.269,2.269,0,0,1-2.27-2.27,2.268,2.268,0,0,1,2.27-2.266" transform="translate(-561.287 38.694)" fill="#fff"/>
  <path id="Path_37617" data-name="Path 37617" d="M574.539-26.559h3.754v1.723h.052a4.109,4.109,0,0,1,3.7-2.035c3.963,0,4.69,2.6,4.69,5.994v6.9h-3.908v-6.119c0-1.458-.029-3.335-2.031-3.335-2.039,0-2.347,1.59-2.347,3.229v6.226h-3.912Z" transform="translate(-556.425 43.019)" fill="#fff"/>
</svg>
