<svg id="Group_45533" data-name="Group 45533" xmlns="http://www.w3.org/2000/svg" width="40.453" height="40.453" viewBox="0 0 40.453 40.453">
  <rect id="Rectangle_1333" data-name="Rectangle 1333" width="40.453" height="40.453" rx="2.881" transform="translate(40.453 0) rotate(90)" fill="#6f6f6f"/>
  <path id="Path_37608" data-name="Path 37608" d="M578.85-26.063a9.242,9.242,0,0,1-2.233.635c.36-.062.885-.709,1.1-.973a4.054,4.054,0,0,0,.742-1.352c.018-.037.033-.084-.008-.114a.12.12,0,0,0-.118.011,11.365,11.365,0,0,1-2.645,1.01.181.181,0,0,1-.184-.048,1.756,1.756,0,0,0-.231-.235,4.568,4.568,0,0,0-1.282-.786,4.431,4.431,0,0,0-1.965-.316,4.676,4.676,0,0,0-1.862.525,4.789,4.789,0,0,0-1.506,1.23,4.6,4.6,0,0,0-.9,1.8,4.859,4.859,0,0,0-.048,1.9c.015.107,0,.121-.092.107a14.137,14.137,0,0,1-9.091-4.624c-.1-.121-.162-.121-.25.007a4.612,4.612,0,0,0,.786,5.447c.18.169.36.338.558.492a4.681,4.681,0,0,1-1.752-.492c-.107-.066-.162-.029-.169.092a2.565,2.565,0,0,0,.029.522,4.654,4.654,0,0,0,2.872,3.713,2.663,2.663,0,0,0,.581.18,5.143,5.143,0,0,1-1.719.051c-.125-.022-.173.04-.125.158a4.835,4.835,0,0,0,3.614,3.027c.162.029.327.029.492.07l-.03.029a5.786,5.786,0,0,1-2.468,1.308,8.859,8.859,0,0,1-3.75.477c-.2-.029-.242-.026-.3,0s-.007.084.059.136c.254.169.514.32.779.463a12.607,12.607,0,0,0,2.505,1,13.347,13.347,0,0,0,12.958-3.03c2.656-2.637,3.585-6.277,3.585-9.917,0-.143.169-.224.268-.3a8.883,8.883,0,0,0,1.767-1.833.569.569,0,0,0,.114-.353v-.018C578.938-26.122,578.938-26.1,578.85-26.063Z" transform="translate(-547.447 39.36)" fill="#fff"/>
</svg>
