<svg xmlns="http://www.w3.org/2000/svg" width="105.908" height="47.223" viewBox="0 0 105.908 47.223">
  <g id="google-parner" transform="translate(-14.5 -22.1)">
    <g id="Group_41404" data-name="Group 41404" transform="translate(36.928 44.029)">
      <path id="Path_34526" data-name="Path 34526" d="M34.992,51.038v7.725H32.5V39.7h6.479a6.027,6.027,0,0,1,4.236,1.62,5.375,5.375,0,0,1,1.744,3.987,5.181,5.181,0,0,1-1.744,3.987,5.633,5.633,0,0,1-4.236,1.62H34.992Zm0-8.971v6.6H39.1a3.4,3.4,0,0,0,3.364-3.364,3.12,3.12,0,0,0-1-2.243,3.4,3.4,0,0,0-2.367-1Z" transform="translate(-32.5 -39.7)" fill="#707070"/>
      <path id="Path_34527" data-name="Path 34527" d="M48.832,44.2a5.862,5.862,0,0,1,4.236,1.5,5.335,5.335,0,0,1,1.62,3.987v7.974H52.32V55.912H52.2a4.635,4.635,0,0,1-3.987,2.243A5.322,5.322,0,0,1,44.6,56.909a3.95,3.95,0,0,1-1.5-3.115,4.018,4.018,0,0,1,1.5-3.24,6.727,6.727,0,0,1,4.112-1.246,7.769,7.769,0,0,1,3.613.748v-.5a2.661,2.661,0,0,0-1-2.118,3.289,3.289,0,0,0-2.367-.872,3.758,3.758,0,0,0-3.24,1.744L43.6,46.941A5.753,5.753,0,0,1,48.832,44.2Zm-3.115,9.469a2.193,2.193,0,0,0,.748,1.62,3.061,3.061,0,0,0,1.869.623,3.865,3.865,0,0,0,2.741-1.121,3.724,3.724,0,0,0,1.246-2.617,4.277,4.277,0,0,0-3.115-1,3.954,3.954,0,0,0-2.492.748A1.768,1.768,0,0,0,45.717,53.669Z" transform="translate(-29.893 -38.593)" fill="#707070"/>
      <path id="Path_34528" data-name="Path 34528" d="M54.6,45.287h2.367v2.118h.125c.748-1.62,2.243-2.492,4.486-2.492h.5v2.492l-1.121-.125a3.879,3.879,0,0,0-2.741,1,3.586,3.586,0,0,0-1.121,2.617V58H54.6ZM69.8,58.495a3.784,3.784,0,0,1-2.617-1,3.952,3.952,0,0,1-1.121-2.741V47.53H63.82V45.287h2.243V41.3h2.492v3.987H71.67V47.53H68.555v6.479c0,.872.125,1.5.5,1.744a2.239,2.239,0,0,0,1.121.5,1.123,1.123,0,0,0,.623-.125c.125,0,.374-.125.5-.125l.748,2.118A6.517,6.517,0,0,1,69.8,58.495Z" transform="translate(-27.064 -39.306)" fill="#707070"/>
      <path id="Path_34529" data-name="Path 34529" d="M70.349,44.574h2.367v1.869h.125a5.51,5.51,0,0,1,1.744-1.62,5.589,5.589,0,0,1,2.367-.623,4.6,4.6,0,0,1,3.613,1.371,5.348,5.348,0,0,1,1.246,3.863v8.1H79.32V49.558c0-2.118-1.121-3.115-3.24-3.115a3.32,3.32,0,0,0-2.492,1.121,4.443,4.443,0,0,0-1,2.866v7.227H70.1V44.574Z" transform="translate(-23.251 -38.593)" fill="#707070"/>
      <path id="Path_34530" data-name="Path 34530" d="M87.8,58.055a6.128,6.128,0,0,1-4.735-1.994A6.868,6.868,0,0,1,81.2,51.077a7.582,7.582,0,0,1,1.744-4.984,5.869,5.869,0,0,1,4.61-1.994,6.009,6.009,0,0,1,4.61,1.869A7.569,7.569,0,0,1,93.909,51.2v.249H83.692a4.659,4.659,0,0,0,1.246,3.115A4.158,4.158,0,0,0,87.8,55.688a3.973,3.973,0,0,0,3.613-2.367l2.118,1a6.9,6.9,0,0,1-2.367,2.617A5.467,5.467,0,0,1,87.8,58.055Zm-3.987-8.473h7.476a3.866,3.866,0,0,0-1.121-2.243,3.51,3.51,0,0,0-2.617-.872,3.289,3.289,0,0,0-2.367.872A4.071,4.071,0,0,0,83.817,49.582Z" transform="translate(-20.521 -38.618)" fill="#707070"/>
      <path id="Path_34531" data-name="Path 34531" d="M95.592,57.532H93.1V44.574h2.367v2.118h.125a3.35,3.35,0,0,1,1.5-1.744A4.019,4.019,0,0,1,99.33,44.2a3.618,3.618,0,0,1,1.744.374l-.623,2.367a3.875,3.875,0,0,0-1.371-.125,3.069,3.069,0,0,0-2.367,1.121,4.021,4.021,0,0,0-1,2.617v6.977Z" transform="translate(-17.594 -38.593)" fill="#707070"/>
    </g>
    <path id="Path_34532" data-name="Path 34532" d="M45.543,31.1a2.624,2.624,0,0,0-1.62.623,2.417,2.417,0,0,0,0,3.24,1.913,1.913,0,0,0,1.62.623,2.063,2.063,0,0,0,1.5-.623,2.624,2.624,0,0,0,.623-1.62,2.152,2.152,0,0,0-.623-1.62A2.063,2.063,0,0,0,45.543,31.1Z" transform="translate(7.084 2.214)" fill="none"/>
    <path id="Path_34533" data-name="Path 34533" d="M59.243,31.1a1.776,1.776,0,0,0-1.5.748A2.009,2.009,0,0,0,57,33.467a2.369,2.369,0,0,0,.623,1.62,1.815,1.815,0,0,0,1.5.623,2.063,2.063,0,0,0,1.5-.623,2.624,2.624,0,0,0,.623-1.62,2.977,2.977,0,0,0-.623-1.744A1.608,1.608,0,0,0,59.243,31.1Z" transform="translate(10.454 2.214)" fill="none"/>
    <path id="Path_34534" data-name="Path 34534" d="M52.443,31.1a2.624,2.624,0,0,0-1.62.623,2.417,2.417,0,0,0,0,3.24,1.913,1.913,0,0,0,1.62.623,2.063,2.063,0,0,0,1.5-.623,2.624,2.624,0,0,0,.623-1.62,2.152,2.152,0,0,0-.623-1.62A2.063,2.063,0,0,0,52.443,31.1Z" transform="translate(8.781 2.214)" fill="none"/>
    <path id="Path_34535" data-name="Path 34535" d="M68.99,31.349a2.31,2.31,0,0,0-.872-.249,2.589,2.589,0,0,0-1.5.623A2.063,2.063,0,0,0,66,33.343l3.489-1.5C69.364,31.723,69.24,31.474,68.99,31.349Z" transform="translate(12.668 2.214)" fill="none"/>
    <path id="Path_34536" data-name="Path 34536" d="M38.205,31.958v1.62h3.987a4.333,4.333,0,0,1-1.246,2.492,3.911,3.911,0,0,1-2.617.872,4.258,4.258,0,0,1-4.361-4.361A4.258,4.258,0,0,1,38.33,28.22a4.465,4.465,0,0,1,2.99,1.121l1.121-1.121A5.539,5.539,0,0,0,38.33,26.6a5.624,5.624,0,0,0-3.115.872,4.89,4.89,0,0,0-2.243,2.243,6,6,0,0,0-.872,2.99,4.967,4.967,0,0,0,.872,2.99,6.432,6.432,0,0,0,2.243,2.243,6.888,6.888,0,0,0,3.115.872,5.968,5.968,0,0,0,4.112-1.5,5.084,5.084,0,0,0,1.62-3.987,2.429,2.429,0,0,0-.125-1H38.205Z" transform="translate(4.329 1.107)" fill="#707070"/>
    <path id="Path_34537" data-name="Path 34537" d="M45.863,29.9a3.877,3.877,0,0,0-2.741,6.6A3.877,3.877,0,0,0,48.6,31.021,3.664,3.664,0,0,0,45.863,29.9Zm1.62,5.607a1.815,1.815,0,0,1-1.5.623,2.137,2.137,0,0,1-2.243-2.243,2.152,2.152,0,0,1,.623-1.62,1.913,1.913,0,0,1,1.62-.623,2.624,2.624,0,0,1,1.62.623,2.369,2.369,0,0,1,.623,1.62A3.862,3.862,0,0,1,47.482,35.507Z" transform="translate(6.764 1.919)" fill="#707070"/>
    <rect id="Rectangle_1314" data-name="Rectangle 1314" width="1.744" height="11.463" transform="translate(74.432 27.956)" fill="#707070"/>
    <path id="Path_34538" data-name="Path 34538" d="M52.763,29.9a3.877,3.877,0,0,0-2.741,6.6A3.877,3.877,0,0,0,55.5,31.021,3.865,3.865,0,0,0,52.763,29.9Zm1.5,5.607a1.815,1.815,0,0,1-1.5.623,2.137,2.137,0,0,1-2.243-2.243,2.152,2.152,0,0,1,.623-1.62,1.913,1.913,0,0,1,1.62-.623,2.624,2.624,0,0,1,1.62.623,2.369,2.369,0,0,1,.623,1.62A2.782,2.782,0,0,1,54.258,35.507Z" transform="translate(8.462 1.919)" fill="#707070"/>
    <path id="Path_34539" data-name="Path 34539" d="M68.438,36.105a1.932,1.932,0,0,1-1.869-1.121L71.8,32.866l-.125-.5a7.4,7.4,0,0,0-.5-1c-.249-.249-.5-.623-.748-.748a2.5,2.5,0,0,0-1-.5A3.45,3.45,0,0,0,68.313,30,3.627,3.627,0,0,0,64.7,33.863a3.829,3.829,0,0,0,3.863,3.863,3.758,3.758,0,0,0,3.24-1.744l-1.371-.872A2.421,2.421,0,0,1,68.438,36.105Zm-1.5-4.112a2.063,2.063,0,0,1,1.5-.623,1.8,1.8,0,0,1,.872.249.828.828,0,0,1,.5.623L66.32,33.613A2.063,2.063,0,0,1,66.943,31.994Z" transform="translate(12.348 1.943)" fill="#707070"/>
    <path id="Path_34540" data-name="Path 34540" d="M61.556,30.772h0a2.567,2.567,0,0,0-2.118-.872,3.586,3.586,0,0,0-2.617,1.121A3.865,3.865,0,0,0,55.7,33.763,3.663,3.663,0,0,0,56.821,36.5a3.586,3.586,0,0,0,2.617,1.121,2.184,2.184,0,0,0,1.994-.872h0v.374c0,1.62-.748,2.492-2.118,2.492a1.523,1.523,0,0,1-1.121-.374,1.938,1.938,0,0,1-.748-1l-1.5.623a4.371,4.371,0,0,0,.623,1l.748.748a2.5,2.5,0,0,0,1,.5,3.45,3.45,0,0,0,1.121.125,3.879,3.879,0,0,0,2.741-1,4.547,4.547,0,0,0,1-2.99V30.274h-1.62v.5Zm-.5,4.735a1.677,1.677,0,0,1-1.5.623,2.063,2.063,0,0,1-1.5-.623,2.262,2.262,0,0,1-.748-1.744,2.369,2.369,0,0,1,.623-1.62,1.947,1.947,0,0,1,1.5-.748,2.063,2.063,0,0,1,1.5.623,2.7,2.7,0,0,1,.623,1.744A2.1,2.1,0,0,1,61.058,35.507Z" transform="translate(10.134 1.919)" fill="#707070"/>
    <rect id="Rectangle_1315" data-name="Rectangle 1315" width="12.46" height="47.223" transform="translate(14.5 22.1)" fill="#707070"/>
  </g>
</svg>
