<svg id="amazon" xmlns="http://www.w3.org/2000/svg" width="190.599" height="26.223" viewBox="0 0 190.599 26.223">
  <g id="Group_41400" data-name="Group 41400" transform="translate(0 1.471)">
    <g id="Group_41399" data-name="Group 41399" transform="translate(11.553 14.946)">
      <path id="Path_34489" data-name="Path 34489" d="M135.268,84.928c-4.76,3.519-11.683,5.395-17.655,5.395A32.011,32.011,0,0,1,96.035,82.1c-.433-.4-.058-.952.49-.635A42.86,42.86,0,0,0,134.576,83.8C135.384,83.457,136.076,84.351,135.268,84.928Z" transform="translate(-95.846 -80.517)" fill="#707070" fill-rule="evenodd"/>
      <path id="Path_34490" data-name="Path 34490" d="M224.688,80.542c-.606-.779-4.039-.375-5.568-.173-.462.058-.548-.346-.115-.635,2.741-1.933,7.212-1.356,7.731-.721s-.144,5.135-2.712,7.27c-.4.317-.779.144-.606-.288C224.024,84.552,225.294,81.321,224.688,80.542Z" transform="translate(-183.275 -78.41)" fill="#707070" fill-rule="evenodd"/>
    </g>
    <path id="Path_34491" data-name="Path 34491" d="M219.29,30.137V28.262a.439.439,0,0,1,.462-.462h8.366a.481.481,0,0,1,.49.462v1.587c0,.26-.231.606-.635,1.183L223.646,37.2a9.4,9.4,0,0,1,4.76,1.01.859.859,0,0,1,.433.721v1.991c0,.288-.288.606-.606.433a9.543,9.543,0,0,0-8.828.029.453.453,0,0,1-.606-.433V39.108a2.156,2.156,0,0,1,.317-1.269l5.02-7.183h-4.356A.511.511,0,0,1,219.29,30.137Z" transform="translate(-171.778 -27.454)" fill="#707070" fill-rule="evenodd"/>
    <path id="Path_34492" data-name="Path 34492" d="M107.4,41.222h-2.539a.521.521,0,0,1-.462-.433V27.75a.481.481,0,0,1,.49-.462h2.366a.47.47,0,0,1,.462.433v1.7h.058a3.482,3.482,0,0,1,6.635,0A3.615,3.615,0,0,1,117.93,27a3.576,3.576,0,0,1,2.942,1.442c.808,1.1.635,2.683.635,4.1v8.251a.481.481,0,0,1-.49.462h-2.539a.5.5,0,0,1-.462-.462V33.866a17.3,17.3,0,0,0-.058-2.452,1.338,1.338,0,0,0-1.5-1.125,1.7,1.7,0,0,0-1.529,1.067,7.994,7.994,0,0,0-.231,2.51v6.924a.481.481,0,0,1-.49.462H111.67a.5.5,0,0,1-.462-.462V33.866c0-1.442.231-3.606-1.558-3.606-1.817,0-1.76,2.077-1.76,3.606v6.924A.477.477,0,0,1,107.4,41.222Z" transform="translate(-90.38 -26.885)" fill="#707070" fill-rule="evenodd"/>
    <path id="Path_34493" data-name="Path 34493" d="M263.612,27c3.779,0,5.827,3.231,5.827,7.356,0,3.981-2.25,7.154-5.827,7.154-3.693,0-5.712-3.231-5.712-7.27C257.9,30.144,259.919,27,263.612,27Zm.029,2.654c-1.875,0-1.991,2.567-1.991,4.154s-.029,4.991,1.962,4.991c1.962,0,2.077-2.741,2.077-4.414a12.622,12.622,0,0,0-.375-3.462A1.643,1.643,0,0,0,263.641,29.654Z" transform="translate(-199.598 -26.885)" fill="#707070" fill-rule="evenodd"/>
    <path id="Path_34494" data-name="Path 34494" d="M307.4,41.222h-2.539a.5.5,0,0,1-.462-.462V27.692a.5.5,0,0,1,.49-.433h2.366a.493.493,0,0,1,.462.375v1.991h.058c.721-1.789,1.7-2.625,3.462-2.625a3.359,3.359,0,0,1,2.971,1.529c.664,1.039.664,2.8.664,4.068v8.222a.475.475,0,0,1-.49.4h-2.539a.525.525,0,0,1-.462-.4v-7.1c0-1.442.173-3.519-1.587-3.519a1.67,1.67,0,0,0-1.471,1.039,5.99,5.99,0,0,0-.4,2.481v7.039A.508.508,0,0,1,307.4,41.222Z" transform="translate(-232.684 -26.885)" fill="#707070" fill-rule="evenodd"/>
    <path id="Path_34495" data-name="Path 34495" d="M178.829,34.706a5.158,5.158,0,0,1-.462,2.712,2.042,2.042,0,0,1-1.76,1.154c-.981,0-1.558-.75-1.558-1.846,0-2.164,1.933-2.567,3.779-2.567Zm2.539,6.2a.522.522,0,0,1-.606.058,6.37,6.37,0,0,1-1.471-1.7,5.054,5.054,0,0,1-4.183,1.846,3.613,3.613,0,0,1-3.808-3.952A4.318,4.318,0,0,1,174.012,33a18.01,18.01,0,0,1,4.789-.894v-.317a3.116,3.116,0,0,0-.317-1.846,1.708,1.708,0,0,0-1.414-.664,1.921,1.921,0,0,0-2.048,1.529c-.058.231-.2.462-.433.462l-2.452-.26a.444.444,0,0,1-.375-.519c.577-3,3.26-3.894,5.683-3.894a5.709,5.709,0,0,1,3.837,1.269c1.24,1.154,1.125,2.712,1.125,4.385v3.952a3.574,3.574,0,0,0,.952,2.366c.173.231.2.519,0,.664-.548.433-1.471,1.212-1.991,1.673Z" transform="translate(-137.98 -26.6)" fill="#707070" fill-rule="evenodd"/>
    <path id="Path_34496" data-name="Path 34496" d="M63.3,34.706a5.158,5.158,0,0,1-.462,2.712,2.042,2.042,0,0,1-1.76,1.154c-.981,0-1.558-.75-1.558-1.846,0-2.164,1.933-2.567,3.779-2.567Zm2.567,6.2a.522.522,0,0,1-.606.058,6.37,6.37,0,0,1-1.471-1.7,5.054,5.054,0,0,1-4.183,1.846A3.613,3.613,0,0,1,55.8,37.158,4.318,4.318,0,0,1,58.512,33,18.01,18.01,0,0,1,63.3,32.11v-.317a3.116,3.116,0,0,0-.317-1.846,1.708,1.708,0,0,0-1.414-.664,1.921,1.921,0,0,0-2.048,1.529c-.058.231-.2.462-.433.462l-2.452-.26a.444.444,0,0,1-.375-.519c.577-3,3.26-3.894,5.683-3.894a5.709,5.709,0,0,1,3.837,1.269c1.24,1.154,1.125,2.712,1.125,4.385v3.952a3.574,3.574,0,0,0,.952,2.366c.173.231.2.519,0,.664-.548.433-1.471,1.212-1.991,1.673Z" transform="translate(-55.8 -26.6)" fill="#707070" fill-rule="evenodd"/>
  </g>
  <g id="Group_41401" data-name="Group 41401" transform="translate(88.102 0)">
    <path id="Path_34497" data-name="Path 34497" d="M361.806,37.039a4.794,4.794,0,0,1,1.76-1.875,5.078,5.078,0,0,1,2.567-.664,4.683,4.683,0,0,1,2.567.692,3.967,3.967,0,0,1,1.558,1.76V34.673h1.327V45.058h-1.327V42.751a4.148,4.148,0,0,1-1.558,1.76,4.615,4.615,0,0,1-2.567.692,4.971,4.971,0,0,1-2.539-.664,4.425,4.425,0,0,1-1.76-1.875,5.922,5.922,0,0,1-.635-2.827A5.8,5.8,0,0,1,361.806,37.039Zm7.933.635a3.657,3.657,0,0,0-1.414-1.471,3.762,3.762,0,0,0-1.962-.519,4.151,4.151,0,0,0-1.991.49,3.521,3.521,0,0,0-1.385,1.442,4.626,4.626,0,0,0-.49,2.25,5.156,5.156,0,0,0,.49,2.25,3.594,3.594,0,0,0,3.375,1.962,3.769,3.769,0,0,0,3.375-1.991,4.593,4.593,0,0,0,.519-2.221A4.479,4.479,0,0,0,369.739,37.673Z" transform="translate(-361.2 -30.75)" fill="#707070"/>
    <path id="Path_34498" data-name="Path 34498" d="M406.406,28.358a4.864,4.864,0,0,1,1.789-1.875,5.078,5.078,0,0,1,2.568-.664,4.836,4.836,0,0,1,2.481.664,3.888,3.888,0,0,1,1.615,1.731V22.3h1.327V36.378h-1.327V34.041A4.034,4.034,0,0,1,413.3,35.83a4.652,4.652,0,0,1-2.539.692,5.078,5.078,0,0,1-2.568-.664,4.425,4.425,0,0,1-1.76-1.875,5.922,5.922,0,0,1-.635-2.827A5.8,5.8,0,0,1,406.406,28.358Zm7.9.635a3.657,3.657,0,0,0-1.414-1.471A3.763,3.763,0,0,0,410.935,27a4.151,4.151,0,0,0-1.991.49,3.521,3.521,0,0,0-1.385,1.442,4.626,4.626,0,0,0-.49,2.25,5.155,5.155,0,0,0,.49,2.25,3.594,3.594,0,0,0,3.375,1.962,3.769,3.769,0,0,0,3.375-1.991,4.593,4.593,0,0,0,.519-2.221A4.479,4.479,0,0,0,414.31,28.993Z" transform="translate(-392.934 -22.069)" fill="#707070"/>
    <path id="Path_34499" data-name="Path 34499" d="M452.862,44.287l3.491-9.087h1.414l-4.183,10.385h-1.5L447.9,35.2h1.442Z" transform="translate(-422.889 -31.248)" fill="#707070"/>
    <path id="Path_34500" data-name="Path 34500" d="M496.353,40.385h-8.626A4.05,4.05,0,0,0,488.3,42.4a3.572,3.572,0,0,0,1.356,1.269,3.842,3.842,0,0,0,1.817.433,3.645,3.645,0,0,0,2.192-.635,2.978,2.978,0,0,0,1.183-1.7h1.414a4.524,4.524,0,0,1-1.615,2.481,4.977,4.977,0,0,1-3.144.952,5.3,5.3,0,0,1-2.625-.664,4.556,4.556,0,0,1-1.817-1.875,6.481,6.481,0,0,1-.029-5.654,4.556,4.556,0,0,1,1.817-1.875,5.314,5.314,0,0,1,2.654-.635,5.1,5.1,0,0,1,2.6.635,4.269,4.269,0,0,1,1.7,1.731,4.874,4.874,0,0,1,.606,2.423C496.382,39.808,496.353,40.154,496.353,40.385Zm-1.789-3.058a3.232,3.232,0,0,0-1.327-1.24,3.841,3.841,0,0,0-1.817-.433,3.653,3.653,0,0,0-2.539.952,3.744,3.744,0,0,0-1.154,2.683h7.3A3.6,3.6,0,0,0,494.564,37.327Z" transform="translate(-450.282 -30.75)" fill="#707070"/>
    <path id="Path_34501" data-name="Path 34501" d="M532.083,35.019A4.438,4.438,0,0,1,534.3,34.5v1.385h-.375a3.464,3.464,0,0,0-2.337.779,3.351,3.351,0,0,0-.865,2.6v5.8H529.4V34.673h1.327v1.846A3.42,3.42,0,0,1,532.083,35.019Z" transform="translate(-480.878 -30.75)" fill="#707070"/>
    <path id="Path_34502" data-name="Path 34502" d="M552.327,29.821v6.462a1.826,1.826,0,0,0,.375,1.327,1.8,1.8,0,0,0,1.269.375h1.212v1.154h-1.442a2.971,2.971,0,0,1-2.106-.664,2.863,2.863,0,0,1-.692-2.164V29.821H549.5V28.7h1.442V26.1H552.3v2.6h2.856v1.125Z" transform="translate(-495.179 -24.773)" fill="#707070"/>
    <path id="Path_34503" data-name="Path 34503" d="M576.089,23.173a.938.938,0,0,1-.289-.692.9.9,0,0,1,.289-.692,1.064,1.064,0,0,1,.692-.288.938.938,0,0,1,.692.288.9.9,0,0,1,.289.692.855.855,0,0,1-.289.692,1.064,1.064,0,0,1-.692.288A.9.9,0,0,1,576.089,23.173Zm1.327,2.25V35.809h-1.327V25.423Z" transform="translate(-513.892 -21.5)" fill="#707070"/>
    <path id="Path_34504" data-name="Path 34504" d="M591.069,44.466a3.011,3.011,0,0,1-1.269-2.25h1.385a1.927,1.927,0,0,0,.837,1.414,3.164,3.164,0,0,0,1.962.548,2.554,2.554,0,0,0,1.7-.519,1.625,1.625,0,0,0,.606-1.269,1.174,1.174,0,0,0-.346-.865,2.616,2.616,0,0,0-.865-.548,9.444,9.444,0,0,0-1.414-.433,13.111,13.111,0,0,1-1.875-.606,3.188,3.188,0,0,1-1.24-.894,2.354,2.354,0,0,1-.49-1.615,2.305,2.305,0,0,1,.461-1.414,3.348,3.348,0,0,1,1.3-1.039,4.4,4.4,0,0,1,1.9-.375,4.227,4.227,0,0,1,2.712.837,3.019,3.019,0,0,1,1.1,2.337H596.2a2.014,2.014,0,0,0-.721-1.471,2.653,2.653,0,0,0-1.789-.548,2.7,2.7,0,0,0-1.644.462,1.418,1.418,0,0,0-.635,1.183,1.371,1.371,0,0,0,.375,1.01,2.572,2.572,0,0,0,.923.606c.375.144.865.317,1.471.49a16.582,16.582,0,0,1,1.789.577,3.3,3.3,0,0,1,1.154.837,2.207,2.207,0,0,1,.49,1.471,2.5,2.5,0,0,1-.462,1.5,3.25,3.25,0,0,1-1.269,1.039,4.357,4.357,0,0,1-1.875.375A4.873,4.873,0,0,1,591.069,44.466Z" transform="translate(-523.853 -30.821)" fill="#707070"/>
    <path id="Path_34505" data-name="Path 34505" d="M624.788,23.173a.938.938,0,0,1-.288-.692.9.9,0,0,1,.288-.692,1.065,1.065,0,0,1,.692-.288.937.937,0,0,1,.692.288.9.9,0,0,1,.289.692.855.855,0,0,1-.289.692,1.064,1.064,0,0,1-.692.288A.938.938,0,0,1,624.788,23.173Zm1.356,2.25V35.809h-1.327V25.423Z" transform="translate(-548.543 -21.5)" fill="#707070"/>
    <path id="Path_34506" data-name="Path 34506" d="M648.7,35.692a4.5,4.5,0,0,1,1.183,3.346v6.087H648.56V39.212a3.743,3.743,0,0,0-.837-2.6,3,3,0,0,0-2.308-.894,3.129,3.129,0,0,0-2.394.952,3.886,3.886,0,0,0-.894,2.8v5.683H640.8V34.769h1.327v1.76a3.175,3.175,0,0,1,1.442-1.442,4.281,4.281,0,0,1,2.106-.49A4.137,4.137,0,0,1,648.7,35.692Z" transform="translate(-560.141 -30.817)" fill="#707070"/>
    <path id="Path_34507" data-name="Path 34507" d="M688.143,35.221a4.058,4.058,0,0,1,1.558,1.731V34.673h1.327V45.347a5.242,5.242,0,0,1-.606,2.539,4.1,4.1,0,0,1-1.731,1.7,5.208,5.208,0,0,1-2.51.606,5.506,5.506,0,0,1-3.317-.952,3.94,3.94,0,0,1-1.644-2.6h1.327a3.237,3.237,0,0,0,1.3,1.731,4.078,4.078,0,0,0,2.366.635,3.842,3.842,0,0,0,1.817-.433,3.352,3.352,0,0,0,1.269-1.269,3.909,3.909,0,0,0,.462-1.991V42.751a4.149,4.149,0,0,1-1.558,1.76,4.584,4.584,0,0,1-2.539.692,5.078,5.078,0,0,1-2.568-.664,4.425,4.425,0,0,1-1.76-1.875,5.921,5.921,0,0,1-.635-2.827,5.8,5.8,0,0,1,.635-2.8,4.8,4.8,0,0,1,1.76-1.875,5.078,5.078,0,0,1,2.568-.664A4.967,4.967,0,0,1,688.143,35.221Zm1.039,2.452a3.656,3.656,0,0,0-1.414-1.471,3.762,3.762,0,0,0-1.962-.519,4.151,4.151,0,0,0-1.991.49,3.52,3.52,0,0,0-1.385,1.442,4.626,4.626,0,0,0-.49,2.25,5.156,5.156,0,0,0,.49,2.25,3.594,3.594,0,0,0,3.375,1.962,3.769,3.769,0,0,0,3.375-1.991,4.593,4.593,0,0,0,.519-2.221A4.479,4.479,0,0,0,689.181,37.673Z" transform="translate(-588.53 -30.75)" fill="#707070"/>
  </g>
</svg>
