<svg id="fb" xmlns="http://www.w3.org/2000/svg" width="183.23" height="27.995" viewBox="0 0 183.23 27.995">
  <g id="Group_41402" data-name="Group 41402" transform="translate(0 0)">
    <path id="Path_34508" data-name="Path 34508" d="M62.852,36.993V47.484c-.3.025-.523.075-.772.075H50.118c-1.5,0-2.018-.523-2.018-2.018v-23.9c0-1.52.523-2.043,1.994-2.043h23.9c1.5,0,1.919.449,1.944,1.944V45.69c0,1.42-.473,1.869-1.844,1.894-2.143.025-4.286,0-6.529,0V36.894c.847,0,1.694-.025,2.542,0,.8.05,1.1-.274,1.146-1.072.075-1.072.249-2.143.4-3.364H67.512c0-1.171-.05-2.193.025-3.215.05-.972.748-1.346,1.62-1.4.822-.05,1.645,0,2.666,0,0-1.221.05-2.342-.05-3.439-.025-.249-.523-.6-.822-.623a21.666,21.666,0,0,0-3.364-.05,5.032,5.032,0,0,0-4.635,5.009c-.075,1.146,0,2.317,0,3.663-.972,0-1.869.025-2.766,0-.7-.025-.972.249-.947.947.05,1.072-.3,2.417.2,3.14.4.548,1.894.3,2.891.424A.834.834,0,0,1,62.852,36.993Z" transform="translate(-48.1 -19.6)" fill="#707070"/>
  </g>
  <g id="Group_41403" data-name="Group 41403" transform="translate(33.516 7.177)">
    <path id="Path_34509" data-name="Path 34509" d="M193.839,58.427c-.1-1.794-.2-3.962-.2-5.557h-.05c-.449,1.52-.972,3.115-1.62,4.884L189.7,64.008h-1.271l-2.093-6.13q-.934-2.729-1.5-5.009h-.05c-.05,1.595-.125,3.763-.249,5.682l-.349,5.532H182.6l.9-12.883h2.118l2.193,6.23c.523,1.595.972,2.99,1.3,4.336h.05c.324-1.3.772-2.716,1.346-4.336l2.293-6.23h2.118l.8,12.883h-1.545Z" transform="translate(-182.6 -50.502)" fill="#707070"/>
    <path id="Path_34510" data-name="Path 34510" d="M249.106,74.369l-.125-1.171h-.05a3.47,3.47,0,0,1-2.816,1.371A2.63,2.63,0,0,1,243.3,71.9c0-2.243,1.994-3.464,5.557-3.439v-.2a1.9,1.9,0,0,0-2.093-2.143,4.648,4.648,0,0,0-2.417.7l-.374-1.1a5.74,5.74,0,0,1,3.04-.822c2.816,0,3.514,1.919,3.514,3.788v3.464a14.788,14.788,0,0,0,.15,2.218Zm-.249-4.735c-1.844-.05-3.912.3-3.912,2.093a1.477,1.477,0,0,0,1.595,1.595,2.336,2.336,0,0,0,2.243-1.545,2.139,2.139,0,0,0,.1-.523v-1.62Z" transform="translate(-228.174 -60.788)" fill="#707070"/>
    <path id="Path_34511" data-name="Path 34511" d="M282.775,67.99c0-1.1-.025-2.018-.075-2.891h1.47l.05,1.819h.075a2.755,2.755,0,0,1,2.567-2.018,2.51,2.51,0,0,1,.473.05v1.595a2.048,2.048,0,0,0-.573-.05,2.336,2.336,0,0,0-2.243,2.168,3.694,3.694,0,0,0-.075.772v4.934h-1.67Z" transform="translate(-257.756 -60.788)" fill="#707070"/>
    <path id="Path_34512" data-name="Path 34512" d="M310.045,56.972h.05c.224-.324.548-.723.822-1.047l2.716-3.19h2.018l-3.563,3.788,4.062,5.432h-2.043l-3.19-4.436-.847.947v3.489H308.4V48.4h1.67v8.572Z" transform="translate(-277.052 -48.4)" fill="#707070"/>
    <path id="Path_34513" data-name="Path 34513" d="M343.295,70.033a2.975,2.975,0,0,0,3.165,3.215,6.1,6.1,0,0,0,2.567-.473l.274,1.2a7.344,7.344,0,0,1-3.065.573c-2.841,0-4.535-1.869-4.535-4.66s1.645-4.984,4.336-4.984c3.015,0,3.813,2.666,3.813,4.361,0,.349-.05.623-.05.772Zm4.934-1.2a2.4,2.4,0,0,0-2.342-2.741,2.776,2.776,0,0,0-2.567,2.741Z" transform="translate(-302.054 -60.788)" fill="#707070"/>
    <path id="Path_34514" data-name="Path 34514" d="M381.665,55.1v2.666h2.417v1.271h-2.417v4.984c0,1.146.324,1.794,1.271,1.794a2.944,2.944,0,0,0,.972-.125l.075,1.271a4.382,4.382,0,0,1-1.5.224,2.382,2.382,0,0,1-1.819-.7,3.465,3.465,0,0,1-.648-2.417V59.037H378.6V57.766h1.42V55.549Z" transform="translate(-329.759 -53.43)" fill="#707070"/>
    <path id="Path_34515" data-name="Path 34515" d="M409.293,52.147a.982.982,0,0,1-1.072,1.022,1,1,0,0,1-1.022-1.022,1.022,1.022,0,0,1,1.047-1.047A1.007,1.007,0,0,1,409.293,52.147Zm-1.869,11.861V54.763h1.67v9.245Z" transform="translate(-351.232 -50.427)" fill="#707070"/>
    <path id="Path_34516" data-name="Path 34516" d="M425.875,67.616c0-.947-.025-1.744-.075-2.492h1.5l.1,1.52h.05A3.4,3.4,0,0,1,430.51,64.9c1.271,0,3.264.772,3.264,3.937v5.532H432.1V69.037c0-1.5-.548-2.741-2.143-2.741a2.361,2.361,0,0,0-2.243,1.719,2.389,2.389,0,0,0-.125.772v5.557h-1.67V67.616Z" transform="translate(-365.197 -60.788)" fill="#707070"/>
    <path id="Path_34517" data-name="Path 34517" d="M474.622,65.049c-.05.673-.075,1.42-.075,2.542v5.358c0,2.118-.424,3.414-1.321,4.211a4.853,4.853,0,0,1-3.364,1.1,5.885,5.885,0,0,1-3.065-.772l.424-1.271a5.343,5.343,0,0,0,2.716.723c1.719,0,2.99-.9,2.99-3.239V72.674h-.05a3.3,3.3,0,0,1-2.94,1.545c-2.293,0-3.937-1.944-3.937-4.51,0-3.14,2.043-4.909,4.161-4.909a3.118,3.118,0,0,1,2.891,1.595h.05l.075-1.4h1.445Zm-1.744,3.638a2.523,2.523,0,0,0-.1-.772,2.4,2.4,0,0,0-2.342-1.769c-1.595,0-2.741,1.346-2.741,3.489,0,1.819.922,3.314,2.741,3.314a2.489,2.489,0,0,0,2.342-1.719,2.787,2.787,0,0,0,.125-.9V68.687Z" transform="translate(-395.38 -60.713)" fill="#707070"/>
    <path id="Path_34518" data-name="Path 34518" d="M527.825,51.049a20.15,20.15,0,0,1,3.19-.249,5.258,5.258,0,0,1,3.613,1.072,3.5,3.5,0,0,1,1.121,2.691,3.732,3.732,0,0,1-1,2.741,5.3,5.3,0,0,1-3.937,1.42,5.62,5.62,0,0,1-1.346-.125v5.158H527.8V51.049Zm1.67,6.2a5.465,5.465,0,0,0,1.371.125c1.993,0,3.239-.972,3.239-2.741,0-1.694-1.2-2.517-3.04-2.517a7.373,7.373,0,0,0-1.57.125Z" transform="translate(-441.78 -50.202)" fill="#707070"/>
    <path id="Path_34519" data-name="Path 34519" d="M569.506,74.369l-.125-1.171h-.05a3.47,3.47,0,0,1-2.816,1.371A2.63,2.63,0,0,1,563.7,71.9c0-2.243,1.993-3.464,5.557-3.439v-.2a1.9,1.9,0,0,0-2.093-2.143,4.581,4.581,0,0,0-2.417.7l-.374-1.1a5.739,5.739,0,0,1,3.04-.822c2.816,0,3.514,1.919,3.514,3.788v3.464a14.78,14.78,0,0,0,.15,2.218Zm-.224-4.735c-1.844-.05-3.912.3-3.912,2.093a1.477,1.477,0,0,0,1.595,1.595,2.336,2.336,0,0,0,2.243-1.545,2.138,2.138,0,0,0,.1-.523v-1.62Z" transform="translate(-468.734 -60.788)" fill="#707070"/>
    <path id="Path_34520" data-name="Path 34520" d="M603.275,67.99c0-1.1-.025-2.018-.075-2.891h1.47l.05,1.819h.075a2.755,2.755,0,0,1,2.567-2.018,2.509,2.509,0,0,1,.473.05v1.595a2.047,2.047,0,0,0-.573-.05,2.336,2.336,0,0,0-2.243,2.168,3.7,3.7,0,0,0-.075.772v4.934h-1.67Z" transform="translate(-498.391 -60.788)" fill="#707070"/>
    <path id="Path_34521" data-name="Path 34521" d="M629.19,55.1v2.666h2.417v1.271H629.19v4.984c0,1.146.324,1.794,1.271,1.794a2.944,2.944,0,0,0,.972-.125l.075,1.271a4.383,4.383,0,0,1-1.5.224,2.382,2.382,0,0,1-1.819-.7,3.465,3.465,0,0,1-.648-2.417V59.037H626.1V57.766h1.445V55.549Z" transform="translate(-515.584 -53.43)" fill="#707070"/>
    <path id="Path_34522" data-name="Path 34522" d="M655.475,67.616c0-.947-.025-1.744-.075-2.492h1.5l.1,1.52h.05A3.4,3.4,0,0,1,660.11,64.9c1.271,0,3.264.772,3.264,3.937v5.532H661.7V69.037c0-1.5-.548-2.741-2.143-2.741a2.361,2.361,0,0,0-2.243,1.719,2.39,2.39,0,0,0-.125.772v5.557h-1.67V67.616Z" transform="translate(-537.583 -60.788)" fill="#707070"/>
    <path id="Path_34523" data-name="Path 34523" d="M697.27,70.033a2.975,2.975,0,0,0,3.165,3.215A6.1,6.1,0,0,0,703,72.774l.3,1.2a7.345,7.345,0,0,1-3.065.573c-2.841,0-4.535-1.869-4.535-4.66s1.645-4.984,4.336-4.984c3.015,0,3.813,2.666,3.813,4.361,0,.349-.05.623-.05.772Zm4.934-1.2a2.4,2.4,0,0,0-2.342-2.741,2.776,2.776,0,0,0-2.567,2.741Z" transform="translate(-567.84 -60.788)" fill="#707070"/>
    <path id="Path_34524" data-name="Path 34524" d="M736.475,67.99c0-1.1-.025-2.018-.075-2.891h1.47l.05,1.819h.075a2.778,2.778,0,0,1,2.567-2.018,2.51,2.51,0,0,1,.473.05v1.595a2.047,2.047,0,0,0-.573-.05,2.336,2.336,0,0,0-2.243,2.168,3.692,3.692,0,0,0-.075.772v4.934h-1.67Z" transform="translate(-598.398 -60.788)" fill="#707070"/>
    <path id="Path_34525" data-name="Path 34525" d="M759.524,72.725a4.405,4.405,0,0,0,2.218.673c1.221,0,1.794-.623,1.794-1.371,0-.8-.473-1.246-1.719-1.694-1.67-.6-2.442-1.52-2.442-2.617,0-1.5,1.2-2.716,3.19-2.716a4.577,4.577,0,0,1,2.268.573l-.424,1.221a3.661,3.661,0,0,0-1.894-.523c-1,0-1.545.573-1.545,1.271,0,.772.548,1.1,1.769,1.57,1.595.623,2.417,1.42,2.417,2.791,0,1.62-1.271,2.766-3.464,2.766a5.307,5.307,0,0,1-2.592-.623Z" transform="translate(-615.442 -60.863)" fill="#707070"/>
  </g>
</svg>
