<svg id="google" xmlns="http://www.w3.org/2000/svg" width="199.057" height="31.281" viewBox="0 0 199.057 31.281">
  <path id="Path_34541" data-name="Path 34541" d="M55.012,71.041c-2.567,0-5.133.025-7.725,0a10.209,10.209,0,0,1-9.893-6.828A10.479,10.479,0,0,1,40.559,52.6a2.848,2.848,0,0,0,.772-1.221A14.484,14.484,0,0,1,54.414,41.338a14.252,14.252,0,0,1,13.855,8.722A9.74,9.74,0,0,0,70.512,53.4,9.738,9.738,0,0,1,72.73,64.537a9.8,9.8,0,0,1-9.345,6.454c-2.766.1-5.557.025-8.348.025C55.012,71.016,55.012,71.016,55.012,71.041Zm-4.062-12.26c-.449-.473-.673-.723-.9-.972a3.959,3.959,0,0,0-4.884-.822,4.217,4.217,0,0,0-2.043,4.685,3.827,3.827,0,0,0,3.887,2.891c5.407.05,10.79.075,16.2.025a4,4,0,0,0,1.121-7.825c-.922-.249-1.121-.7-1.2-1.52a7.934,7.934,0,0,0-6.678-7.326,7.656,7.656,0,0,0-7.1,2.467,8.649,8.649,0,0,1,1.3.523c1.346.872,2.691,1.744,4.012,2.666.473.324.6.723.1,1.221C53.492,56.09,52.271,57.386,50.951,58.781Z" transform="translate(-36.762 -41.317)" fill="#707070"/>
  <path id="Path_34542" data-name="Path 34542" d="M245.551,62.118c-.723.748-1.346,1.346-1.919,1.919-4.76-2.616-7.9-2.442-10.715.473a7.725,7.725,0,0,0-1.022,8.921,7.436,7.436,0,0,0,8.672,3.464,5.545,5.545,0,0,0,4.411-5.358c-1.719,0-3.464-.05-5.183.025-1.1.05-1.42-.3-1.42-1.4,0-1.072.3-1.47,1.4-1.445,2.367.075,4.735.075,7.1.025.947-.025,1.171.374,1.221,1.246.125,3.912-1.221,7.1-4.784,8.9a10.479,10.479,0,0,1-13.656-15.026,10.583,10.583,0,0,1,14.553-2.816A14.569,14.569,0,0,1,245.551,62.118Z" transform="translate(-180.204 -54.796)" fill="#707070"/>
  <path id="Path_34543" data-name="Path 34543" d="M440.775,90.233c.673-1.246,1.744-.7,2.666-.648.125,0,.349.6.349.922.025,3.937.05,7.874-.025,11.837a5.832,5.832,0,0,1-3.912,5.781,6.535,6.535,0,0,1-7.4-2.068c-.324-.4-.548-.9-.922-1.47a13.249,13.249,0,0,1,2.043-.847c.3-.05.773.3,1.022.6a3.716,3.716,0,0,0,3.987,1.346A3.364,3.364,0,0,0,440.8,101.4c-3.688,1.719-6.5,1.171-8.547-1.62a6.965,6.965,0,0,1,.449-8.522C434.87,88.862,437.785,88.488,440.775,90.233Zm.473,5.582a3.854,3.854,0,0,0-3.514-4.087,4.072,4.072,0,0,0-.05,8.124A3.863,3.863,0,0,0,441.249,95.814Z" transform="translate(-332.767 -77.229)" fill="#707070"/>
  <path id="Path_34544" data-name="Path 34544" d="M795.4,75.3c0-2.068.025-3.987-.025-5.881-.025-.922.324-1.221,1.246-1.221s1.1.4,1.1,1.2c-.025,5.158,0,10.292-.025,15.45,0,.573.4,1.42-.723,1.52-.922.075-1.694,0-1.595-1.545a5.634,5.634,0,0,1-8.971-.673,7.317,7.317,0,0,1,.748-8.971C789.392,72.984,792.083,72.984,795.4,75.3Zm.075,4.784a4.1,4.1,0,0,0-3.912-4.411c-2.318-.025-4.037,1.869-4.037,4.436a4.266,4.266,0,0,0,4.012,4.51C793.828,84.6,795.472,82.7,795.472,80.086Z" transform="translate(-598.702 -61.501)" fill="#707070"/>
  <path id="Path_34545" data-name="Path 34545" d="M320.228,89.1a6.476,6.476,0,0,1,6.6,6.728,6.716,6.716,0,0,1-13.431-.1A6.438,6.438,0,0,1,320.228,89.1Zm3.638,6.628a3.857,3.857,0,0,0-3.838-4.037,4.093,4.093,0,0,0,.025,8.149A4.014,4.014,0,0,0,323.866,95.728Z" transform="translate(-244.465 -77.192)" fill="#707070"/>
  <path id="Path_34546" data-name="Path 34546" d="M378.878,102.181a6.691,6.691,0,1,1,.05-13.382,6.633,6.633,0,0,1,6.7,6.728A6.552,6.552,0,0,1,378.878,102.181Zm-3.713-6.728a3.773,3.773,0,1,0,3.763-3.962A3.749,3.749,0,0,0,375.165,95.453Z" transform="translate(-288.612 -76.967)" fill="#707070"/>
  <path id="Path_34547" data-name="Path 34547" d="M511.525,97.726c1.47,2.641,3.838,2.691,6.5.249.673.449,1.371.922,2.068,1.371a6.421,6.421,0,0,1-7.675,2.716c-3.165-1.072-4.834-3.962-4.361-7.625a6.068,6.068,0,0,1,5.632-5.383c3.24-.2,5.582,1.545,6.479,4.984C517.381,95.259,514.49,96.48,511.525,97.726Zm-.349-2.342c1.894-.8,3.738-1.595,5.657-2.392-1.1-1.4-2.318-1.695-3.638-1.1A3.006,3.006,0,0,0,511.176,95.383Z" transform="translate(-390.558 -77.147)" fill="#707070"/>
  <path id="Path_34548" data-name="Path 34548" d="M598.086,82.183c-2.542,3.813-9.12,4.411-13.033,1.321a9.754,9.754,0,0,1-1.022-13.98,9.194,9.194,0,0,1,13.656.05c-.523.4-1.072.822-1.695,1.321a6.665,6.665,0,0,0-6.23-2.018,6.812,6.812,0,0,0-4.286,2.517,7.676,7.676,0,0,0,.274,9.544c2.866,3.09,6.23,3.04,10.939-.2C597.164,81.212,597.637,81.685,598.086,82.183Z" transform="translate(-445.796 -60.234)" fill="#707070"/>
  <path id="Path_34549" data-name="Path 34549" d="M674.3,96.2c0-3.912,2.641-6.628,6.4-6.6,3.738,0,6.379,2.791,6.354,6.678a6.261,6.261,0,0,1-6.354,6.554C676.916,102.831,674.3,100.09,674.3,96.2Zm2.293.05a4.206,4.206,0,0,0,4.112,4.411,4.3,4.3,0,0,0,4.062-4.485,4.135,4.135,0,0,0-4.161-4.436A4.216,4.216,0,0,0,676.593,96.253Z" transform="translate(-515.432 -77.568)" fill="#707070"/>
  <path id="Path_34550" data-name="Path 34550" d="M741.985,102.039a5.694,5.694,0,0,1-4.087,1.894,4.257,4.257,0,0,1-4.56-4.261c-.1-2.517-.025-5.059-.05-7.6,0-.822.449-.922,1.121-.947.748-.025,1.171.15,1.146,1.022-.025,2.168-.025,4.311.025,6.479.075,2.392,1.744,3.638,3.912,3.015a3.678,3.678,0,0,0,2.367-3.464c.05-1.944.075-3.912.025-5.856-.025-.922.324-1.2,1.221-1.221.972,0,1.171.4,1.146,1.271-.05,3.19,0,6.379-.025,9.594,0,.573.474,1.52-.723,1.62C742.484,103.684,741.736,103.51,741.985,102.039Z" transform="translate(-559.718 -78.695)" fill="#707070"/>
  <path id="Path_34551" data-name="Path 34551" d="M490.416,71.906c0-2.866.05-5.731-.025-8.6-.025-1.2.6-1.246,1.47-1.221.822.025,1.545-.05,1.52,1.171-.05,5.806-.05,11.637-.025,17.443,0,1.3-.822,1.072-1.595,1.1-.847.05-1.42-.05-1.371-1.171.075-2.891.025-5.806.025-8.722Z" transform="translate(-377.349 -56.909)" fill="#707070"/>
  <path id="Path_34552" data-name="Path 34552" d="M659.067,77.145c0,2.617-.025,5.233.025,7.849,0,.872-.249,1.271-1.2,1.271-1,0-1.171-.424-1.171-1.3.025-5.233,0-10.466-.025-15.7,0-.872.224-1.271,1.2-1.271s1.2.424,1.171,1.3c-.05,2.616-.025,5.233,0,7.849Z" transform="translate(-502.218 -61.351)" fill="#707070"/>
</svg>
