<svg id="Group_45540" data-name="Group 45540" xmlns="http://www.w3.org/2000/svg" width="40.453" height="40.453" viewBox="0 0 40.453 40.453">
  <rect id="Rectangle_1337" data-name="Rectangle 1337" width="40.453" height="40.453" rx="2.881" transform="translate(40.453 0) rotate(90)" fill="#6f6f6f"/>
  <path id="Path_37618" data-name="Path 37618" d="M552.735-15.243A11.382,11.382,0,0,0,541.36-3.879,11.382,11.382,0,0,0,552.735,7.486,11.385,11.385,0,0,0,564.115-3.879a11.385,11.385,0,0,0-11.379-11.364Zm7.489,5.363a9.551,9.551,0,0,1,2.123,5.855,23.828,23.828,0,0,0-4.448-.43,17.92,17.92,0,0,0-2.189.129c-.066-.154-.129-.3-.195-.459-.191-.455-.4-.9-.613-1.348a13.127,13.127,0,0,0,5.322-3.747Zm-7.489-3.585a9.6,9.6,0,0,1,6.336,2.384,10.95,10.95,0,0,1-4.966,3.409,51.438,51.438,0,0,0-3.537-5.543,9.607,9.607,0,0,1,2.167-.25Zm-4.128.933a62.916,62.916,0,0,1,3.519,5.477A36.549,36.549,0,0,1,543.435-5.9h-.092a9.628,9.628,0,0,1,5.263-6.634Zm-5.484,8.668c0-.081,0-.158,0-.239l.253,0a35.971,35.971,0,0,0,9.6-1.366c.257.507.507,1.021.735,1.535-.106.029-.213.062-.319.1A15.372,15.372,0,0,0,545.544,2.5a9.55,9.55,0,0,1-2.421-6.362Zm9.612,9.6a9.567,9.567,0,0,1-5.862-2,13.3,13.3,0,0,1,7.533-5.958l.011,0a39.888,39.888,0,0,1,2.031,7.214,9.536,9.536,0,0,1-3.714.746Zm5.447-1.69a41.668,41.668,0,0,0-1.844-6.74,12.35,12.35,0,0,1,1.936-.147,14.328,14.328,0,0,1,3.945.551,9.616,9.616,0,0,1-4.037,6.336Z" transform="translate(-532.748 24.106)" fill="#fff"/>
</svg>
