<svg id="Group_45536" data-name="Group 45536" xmlns="http://www.w3.org/2000/svg" width="40.453" height="40.453" viewBox="0 0 40.453 40.453">
  <rect id="Rectangle_1335" data-name="Rectangle 1335" width="40.453" height="40.453" rx="2.881" transform="translate(40.453 0) rotate(90)" fill="#6f6f6f"/>
  <g id="Group_45535" data-name="Group 45535" transform="translate(8.369 8.368)">
    <path id="Path_37611" data-name="Path 37611" d="M547.241-27.836a1.388,1.388,0,0,0-1.388,1.392,1.387,1.387,0,0,0,1.388,1.388,1.388,1.388,0,0,0,1.392-1.388A1.389,1.389,0,0,0,547.241-27.836Z" transform="translate(-529.108 32.071)" fill="#fff"/>
    <path id="Path_37612" data-name="Path 37612" d="M548.8-27.351a5.849,5.849,0,0,0-5.84,5.844,5.848,5.848,0,0,0,5.84,5.84,5.85,5.85,0,0,0,5.84-5.84A5.851,5.851,0,0,0,548.8-27.351Zm0,9.583a3.746,3.746,0,0,1-3.743-3.739A3.746,3.746,0,0,1,548.8-25.25a3.746,3.746,0,0,1,3.739,3.743A3.745,3.745,0,0,1,548.8-17.768Z" transform="translate(-536.843 33.367)" fill="#fff"/>
    <path id="Path_37613" data-name="Path 37613" d="M557.885-5.272h-9.469a7.132,7.132,0,0,1-7.122-7.126v-9.465a7.132,7.132,0,0,1,7.122-7.126h9.469a7.132,7.132,0,0,1,7.122,7.126V-12.4A7.132,7.132,0,0,1,557.885-5.272Zm-9.469-21.484a4.9,4.9,0,0,0-4.892,4.893V-12.4a4.9,4.9,0,0,0,4.892,4.892h9.469a4.9,4.9,0,0,0,4.893-4.892v-9.465a4.9,4.9,0,0,0-4.893-4.893Z" transform="translate(-541.294 28.989)" fill="#fff"/>
  </g>
</svg>
