<svg id="Group_45542" data-name="Group 45542" xmlns="http://www.w3.org/2000/svg" width="40.453" height="40.453" viewBox="0 0 40.453 40.453">
  <rect id="Rectangle_1339" data-name="Rectangle 1339" width="40.453" height="40.453" rx="2.881" transform="translate(40.453 0) rotate(90)" fill="#6f6f6f"/>
  <path id="Path_37622" data-name="Path 37622" d="M565.181.7c-.022.073-.041.132-.059.191-.9,3.533-1,4.316-1.928,5.958a18.062,18.062,0,0,1-1.488,2.226c-.062.081-.121.184-.246.158s-.147-.151-.162-.261a19.409,19.409,0,0,1-.195-3.232c.048-1.41.224-1.9,2.042-9.55a.557.557,0,0,0-.04-.32,5.377,5.377,0,0,1-.143-3.574c.823-2.612,3.783-2.814,4.3-.657.32,1.333-.525,3.074-1.172,5.653C565.555-.586,568.057.927,570.2-.627c1.972-1.429,2.736-4.859,2.589-7.291-.286-4.845-5.6-5.9-8.973-4.334-3.864,1.789-4.742,6.578-3,8.771.221.279.393.448.32.731-.114.437-.213.878-.334,1.315a.465.465,0,0,1-.691.309A3.913,3.913,0,0,1,558.5-2.335c-1.484-1.837-1.906-5.465.052-8.54a10.26,10.26,0,0,1,9.9-4.364,8.379,8.379,0,0,1,7.71,6.924,11.531,11.531,0,0,1-2.119,8.1c-2.509,3.115-6.582,3.32-8.459,1.41A6.355,6.355,0,0,1,565.181.7Z" transform="translate(-546.508 23.925)" fill="#fff" fill-rule="evenodd"/>
</svg>
