<svg id="Group_45534" data-name="Group 45534" xmlns="http://www.w3.org/2000/svg" width="40.453" height="40.453" viewBox="0 0 40.453 40.453">
  <rect id="Rectangle_1334" data-name="Rectangle 1334" width="40.453" height="40.453" rx="2.881" transform="translate(40.453 0) rotate(90)" fill="#6f6f6f"/>
  <path id="Path_37609" data-name="Path 37609" d="M572.139,8.085l1.686-6.292a11.581,11.581,0,0,1-1.458-5.612,11.631,11.631,0,0,1,11.618-11.618A11.631,11.631,0,0,1,595.6-3.819,11.631,11.631,0,0,1,583.985,7.8a11.591,11.591,0,0,1-5.521-1.407Zm6.637-4.051.4.235A9.377,9.377,0,0,0,583.985,5.6a9.431,9.431,0,0,0,9.421-9.421,9.429,9.429,0,0,0-9.421-9.421,9.431,9.431,0,0,0-9.421,9.421,9.409,9.409,0,0,0,1.377,4.885l.246.4-.94,3.511Z" transform="translate(-562.84 23.588)" fill="#fff"/>
  <path id="Path_37610" data-name="Path 37610" d="M583.774-6.795a1.949,1.949,0,0,0-1.664-.375c-.434.176-.709.852-.988,1.2a.417.417,0,0,1-.536.118,7.543,7.543,0,0,1-3.761-3.221.464.464,0,0,1,.059-.632,2.537,2.537,0,0,0,.683-1.109,2.426,2.426,0,0,0-.3-1.311,3.124,3.124,0,0,0-.969-1.462,1.337,1.337,0,0,0-1.444.213,2.934,2.934,0,0,0-1.014,2.321,3.266,3.266,0,0,0,.092.735,6.028,6.028,0,0,0,.705,1.627,12.888,12.888,0,0,0,.738,1.124,11.4,11.4,0,0,0,3.2,2.968,9.739,9.739,0,0,0,1.995.948,4.465,4.465,0,0,0,2.321.367,2.811,2.811,0,0,0,2.1-1.565,1.4,1.4,0,0,0,.1-.8C584.964-6.2,584.219-6.53,583.774-6.795Z" transform="translate(-558.307 28.179)" fill="#fff" fill-rule="evenodd"/>
</svg>
