<svg id="microsoft" xmlns="http://www.w3.org/2000/svg" width="174.995" height="50.498" viewBox="0 0 174.995 50.498">
  <g id="Group_41405" data-name="Group 41405" transform="translate(121.055 38.984)">
    <path id="Path_34553" data-name="Path 34553" d="M1949.284,593.9v-.947h-1.18v-1.473l-.038.015-1.1.338-.023.008v1.12H1945.2v-.624a.992.992,0,0,1,.2-.661.691.691,0,0,1,.541-.218,1.284,1.284,0,0,1,.511.113l.045.023v-1l-.023-.008a1.955,1.955,0,0,0-.654-.09,1.87,1.87,0,0,0-.924.226,1.612,1.612,0,0,0-.639.631,1.872,1.872,0,0,0-.225.924v.684h-.827v.947h.819V597.9h1.18v-4h1.744v2.54c0,1.045.5,1.578,1.466,1.578a2.389,2.389,0,0,0,.5-.053,1.458,1.458,0,0,0,.361-.113l.015-.008V596.9l-.045.03a.891.891,0,0,1-.241.105.74.74,0,0,1-.233.038.643.643,0,0,1-.5-.18.993.993,0,0,1-.158-.639v-2.337h1.18Zm-8.718,3.157a1.24,1.24,0,0,1-1-.421,1.779,1.779,0,0,1-.361-1.187,1.839,1.839,0,0,1,.361-1.218,1.362,1.362,0,0,1,1.962-.023,1.817,1.817,0,0,1,.353,1.21,1.966,1.966,0,0,1-.331,1.225,1.216,1.216,0,0,1-.984.413m.053-4.224a2.563,2.563,0,0,0-1.924.714,2.687,2.687,0,0,0-.7,1.939,2.51,2.51,0,0,0,.676,1.849,2.794,2.794,0,0,0,3.705-.038,2.669,2.669,0,0,0,.7-1.917,2.573,2.573,0,0,0-.654-1.864,2.384,2.384,0,0,0-1.8-.684m-4.517,0a2.152,2.152,0,0,0-1.368.421,1.346,1.346,0,0,0-.534,1.1,1.583,1.583,0,0,0,.113.616,1.216,1.216,0,0,0,.353.458,3.13,3.13,0,0,0,.714.4,5.258,5.258,0,0,1,.594.278.8.8,0,0,1,.263.218.506.506,0,0,1,.075.278c0,.331-.248.5-.759.5a2.012,2.012,0,0,1-.646-.12,2.478,2.478,0,0,1-.661-.331l-.053-.038v1.135l.015.007a3.061,3.061,0,0,0,.624.2,3.25,3.25,0,0,0,.669.075,2.289,2.289,0,0,0,1.443-.421,1.378,1.378,0,0,0,.534-1.12,1.317,1.317,0,0,0-.286-.849,2.514,2.514,0,0,0-.977-.624,2.739,2.739,0,0,1-.7-.361.522.522,0,0,1-.143-.383.434.434,0,0,1,.18-.353.834.834,0,0,1,.5-.143,2.036,2.036,0,0,1,.594.09,1.847,1.847,0,0,1,.519.241l.045.03v-1.075l-.015-.008a2.83,2.83,0,0,0-.526-.15,3.357,3.357,0,0,0-.571-.06m-4.968,4.224a1.24,1.24,0,0,1-1-.421,1.779,1.779,0,0,1-.361-1.187,1.839,1.839,0,0,1,.361-1.218,1.362,1.362,0,0,1,1.962-.023,1.817,1.817,0,0,1,.353,1.21,1.965,1.965,0,0,1-.331,1.225,1.216,1.216,0,0,1-.984.413m.053-4.224a2.563,2.563,0,0,0-1.924.714,2.688,2.688,0,0,0-.7,1.939,2.51,2.51,0,0,0,.676,1.849,2.794,2.794,0,0,0,3.705-.038,2.669,2.669,0,0,0,.7-1.917,2.573,2.573,0,0,0-.654-1.864,2.384,2.384,0,0,0-1.8-.684m-4.412.977v-.857h-1.165V597.9h1.165V595.37a1.761,1.761,0,0,1,.293-1.052.89.89,0,0,1,.752-.4,1.26,1.26,0,0,1,.353.053.783.783,0,0,1,.271.113l.053.038V592.95l-.023-.007a1.229,1.229,0,0,0-.458-.068,1.187,1.187,0,0,0-.782.278,1.644,1.644,0,0,0-.451.661h-.008Zm-3.247-.977a2.869,2.869,0,0,0-1.413.338,2.258,2.258,0,0,0-.932.962,3.07,3.07,0,0,0-.323,1.42,2.7,2.7,0,0,0,.308,1.278,2.182,2.182,0,0,0,.872.879,2.6,2.6,0,0,0,1.27.308,2.8,2.8,0,0,0,1.405-.331l.015-.008v-1.067l-.053.038a1.96,1.96,0,0,1-.571.293,1.6,1.6,0,0,1-.556.105,1.449,1.449,0,0,1-1.09-.421,1.666,1.666,0,0,1-.4-1.172,1.718,1.718,0,0,1,.421-1.21,1.423,1.423,0,0,1,1.09-.451,1.859,1.859,0,0,1,1.1.383l.045.038V593.1l-.015-.008a1.9,1.9,0,0,0-.541-.18,2.651,2.651,0,0,0-.639-.075m-3.465.12H1918.9V597.9h1.165v-4.945Zm-.571-2.1a.712.712,0,0,0-.5.2.653.653,0,0,0-.21.489.614.614,0,0,0,.2.473.692.692,0,0,0,.5.188.723.723,0,0,0,.5-.188.633.633,0,0,0,.21-.473.653.653,0,0,0-.2-.481.68.68,0,0,0-.5-.2m-2.9,1.744V597.9h1.188V591h-1.646l-2.089,5.126L1912.014,591H1910.3v6.9h1.112v-5.314h.038l2.142,5.314h.842l2.1-5.314.053.008Z" transform="translate(-1895.344 -588.696)" fill="#707070"/>
    <path id="Path_34554" data-name="Path 34554" d="M1716.771,571.971H1711.3V566.5h5.471Z" transform="translate(-1711.3 -566.5)" fill="#707070"/>
    <path id="Path_34555" data-name="Path 34555" d="M1797.171,571.971H1791.7V566.5h5.471v5.471Z" transform="translate(-1785.657 -566.5)" fill="#707070"/>
    <path id="Path_34556" data-name="Path 34556" d="M1716.771,652.371H1711.3V646.9h5.471Z" transform="translate(-1711.3 -640.857)" fill="#707070"/>
    <path id="Path_34557" data-name="Path 34557" d="M1797.171,652.371H1791.7V646.9h5.471v5.471Z" transform="translate(-1785.657 -640.857)" fill="#707070"/>
  </g>
  <g id="Group_41406" data-name="Group 41406" transform="translate(0 16.362)">
    <path id="Path_34558" data-name="Path 34558" d="M117.127,297.5h-1.886V286.636q0-1.285.158-3.157h-.045a10.044,10.044,0,0,1-.489,1.571L109.326,297.5H108.4l-5.524-12.363a9.662,9.662,0,0,1-.489-1.661h-.045q.09.97.09,3.179v10.853H100.6V281.3h2.51l4.975,11.3a14.439,14.439,0,0,1,.744,1.947h.068c.323-.887.586-1.556.782-1.992l5.073-11.259h2.375v16.2Z" transform="translate(-100.6 -280.112)" fill="#707070"/>
    <path id="Path_34559" data-name="Path 34559" d="M371.7,274.205a1.18,1.18,0,0,1-.849-.338,1.145,1.145,0,0,1-.353-.857,1.173,1.173,0,0,1,.353-.864,1.157,1.157,0,0,1,.849-.346,1.191,1.191,0,0,1,.864.346,1.145,1.145,0,0,1,.353.864,1.164,1.164,0,0,1-.353.849A1.179,1.179,0,0,1,371.7,274.205Zm.909,14.513h-1.856V277.144h1.856Z" transform="translate(-350.215 -271.327)" fill="#707070"/>
    <path id="Path_34560" data-name="Path 34560" d="M446.681,350.711a6.036,6.036,0,0,1-3.164.8,5.238,5.238,0,0,1-4-1.608A5.833,5.833,0,0,1,438,345.728a6.419,6.419,0,0,1,1.638-4.592,5.723,5.723,0,0,1,4.374-1.736,6.107,6.107,0,0,1,2.691.564v1.9a4.723,4.723,0,0,0-2.758-.9,3.724,3.724,0,0,0-2.909,1.27,4.817,4.817,0,0,0-1.135,3.337,4.585,4.585,0,0,0,1.067,3.209,3.69,3.69,0,0,0,2.864,1.172,4.659,4.659,0,0,0,2.848-1.007Z" transform="translate(-412.642 -333.846)" fill="#707070"/>
    <path id="Path_34561" data-name="Path 34561" d="M596.835,342.282a2.26,2.26,0,0,0-1.4-.376,2.377,2.377,0,0,0-1.984,1.12,5.158,5.158,0,0,0-.8,3.051v5.9H590.8V340.4h1.856v2.382h.045a4.024,4.024,0,0,1,1.21-1.9,2.743,2.743,0,0,1,1.819-.684,3.019,3.019,0,0,1,1.1.158Z" transform="translate(-553.958 -334.586)" fill="#707070"/>
    <path id="Path_34562" data-name="Path 34562" d="M688.829,351.515a5.36,5.36,0,0,1-4.1-1.623,6.009,6.009,0,0,1-1.533-4.3,6.26,6.26,0,0,1,1.593-4.555A5.731,5.731,0,0,1,689.1,339.4a5.2,5.2,0,0,1,4.043,1.593,6.3,6.3,0,0,1,1.45,4.419,6.2,6.2,0,0,1-1.563,4.434A5.485,5.485,0,0,1,688.829,351.515Zm.143-10.56a3.525,3.525,0,0,0-2.826,1.218,5,5,0,0,0-1.037,3.352,4.752,4.752,0,0,0,1.052,3.247,3.55,3.55,0,0,0,2.811,1.187,3.407,3.407,0,0,0,2.766-1.165,5.038,5.038,0,0,0,.97-3.314,5.127,5.127,0,0,0-.97-3.344A3.372,3.372,0,0,0,688.972,340.956Z" transform="translate(-639.413 -333.846)" fill="#707070"/>
    <path id="Path_34563" data-name="Path 34563" d="M864.9,350.639v-1.992a5.491,5.491,0,0,0,3.337,1.12c1.631,0,2.443-.541,2.443-1.631a1.406,1.406,0,0,0-.21-.789,2.14,2.14,0,0,0-.564-.571,4.354,4.354,0,0,0-.834-.443c-.323-.135-.661-.271-1.037-.413a12.966,12.966,0,0,1-1.353-.616,4.129,4.129,0,0,1-.969-.7,2.572,2.572,0,0,1-.586-.887,3.077,3.077,0,0,1-.2-1.165,2.79,2.79,0,0,1,.376-1.443,3.311,3.311,0,0,1,.992-1.052,4.534,4.534,0,0,1,1.42-.639,6.342,6.342,0,0,1,1.646-.218,6.66,6.66,0,0,1,2.691.519V341.6a5.254,5.254,0,0,0-2.939-.834,3.312,3.312,0,0,0-.94.12,2.324,2.324,0,0,0-.714.331,1.579,1.579,0,0,0-.466.511,1.329,1.329,0,0,0-.165.661,1.553,1.553,0,0,0,.165.759,1.714,1.714,0,0,0,.481.541,3.663,3.663,0,0,0,.767.428c.3.128.646.271,1.03.421.511.2.969.4,1.375.6a4.994,4.994,0,0,1,1.037.7,2.773,2.773,0,0,1,.661.9,2.85,2.85,0,0,1,.233,1.21,2.926,2.926,0,0,1-.376,1.5,3.227,3.227,0,0,1-1.015,1.052,4.648,4.648,0,0,1-1.458.624,7.212,7.212,0,0,1-1.729.2A6.522,6.522,0,0,1,864.9,350.639Z" transform="translate(-807.457 -333.661)" fill="#707070"/>
    <path id="Path_34564" data-name="Path 34564" d="M1000.029,351.515a5.36,5.36,0,0,1-4.1-1.623,6.009,6.009,0,0,1-1.533-4.3,6.26,6.26,0,0,1,1.593-4.555,5.732,5.732,0,0,1,4.307-1.638,5.2,5.2,0,0,1,4.043,1.593,6.3,6.3,0,0,1,1.451,4.419,6.2,6.2,0,0,1-1.563,4.434A5.485,5.485,0,0,1,1000.029,351.515Zm.135-10.56a3.525,3.525,0,0,0-2.826,1.218,5,5,0,0,0-1.037,3.352,4.753,4.753,0,0,0,1.052,3.247,3.55,3.55,0,0,0,2.811,1.187,3.407,3.407,0,0,0,2.766-1.165,5.038,5.038,0,0,0,.969-3.314,5.127,5.127,0,0,0-.969-3.344A3.362,3.362,0,0,0,1000.165,340.956Z" transform="translate(-927.225 -333.846)" fill="#707070"/>
    <path id="Path_34565" data-name="Path 34565" d="M1169.8,267.386a2.479,2.479,0,0,0-1.233-.308c-1.293,0-1.947.819-1.947,2.45v1.789h2.713V272.9h-2.713v9.988h-1.841V272.9H1162.8v-1.586h1.977v-1.879a3.92,3.92,0,0,1,1.052-2.879,3.547,3.547,0,0,1,2.623-1.06,3.644,3.644,0,0,1,1.345.2Z" transform="translate(-1082.968 -265.5)" fill="#707070"/>
    <path id="Path_34566" data-name="Path 34566" d="M1269.964,312.189a3.582,3.582,0,0,1-1.729.361q-3.044,0-3.044-3.39v-6.847H1263.2v-1.586h1.992V297.9l1.856-.6v3.427h2.916v1.586h-2.916v6.524a2.707,2.707,0,0,0,.4,1.661,1.575,1.575,0,0,0,1.308.5,1.956,1.956,0,0,0,1.21-.383Z" transform="translate(-1175.822 -294.91)" fill="#707070"/>
    <path id="Path_34567" data-name="Path 34567" d="M1475.7,291.379V297.5h-1.9V281.3h4.457a5.882,5.882,0,0,1,4.028,1.263,4.513,4.513,0,0,1,1.428,3.57,4.9,4.9,0,0,1-1.586,3.773,6.083,6.083,0,0,1-4.291,1.473Zm0-8.365v6.644h1.992a4.427,4.427,0,0,0,3-.9,3.2,3.2,0,0,0,1.037-2.54q0-3.213-3.8-3.209H1475.7Z" transform="translate(-1370.594 -280.112)" fill="#707070"/>
    <path id="Path_34568" data-name="Path 34568" d="M1630.847,351.052h-1.856v-1.811h-.045a3.886,3.886,0,0,1-3.562,2.082,3.817,3.817,0,0,1-2.706-.917,3.16,3.16,0,0,1-.977-2.428q0-3.247,3.818-3.773l3.472-.489q0-2.954-2.383-2.954a5.7,5.7,0,0,0-3.773,1.42v-1.9a7.18,7.18,0,0,1,3.931-1.082c2.721,0,4.081,1.443,4.081,4.314Zm-1.856-5.855-2.788.383a4.507,4.507,0,0,0-1.947.639,1.853,1.853,0,0,0-.654,1.623,1.771,1.771,0,0,0,.6,1.383,2.323,2.323,0,0,0,1.608.534,2.977,2.977,0,0,0,2.277-.97,3.448,3.448,0,0,0,.9-2.45Z" transform="translate(-1507.379 -333.661)" fill="#707070"/>
    <path id="Path_34569" data-name="Path 34569" d="M1795.835,342.282a2.261,2.261,0,0,0-1.4-.376,2.377,2.377,0,0,0-1.984,1.12,5.157,5.157,0,0,0-.8,3.051v5.9H1789.8V340.4h1.856v2.382h.045a4.023,4.023,0,0,1,1.21-1.9,2.743,2.743,0,0,1,1.819-.684,3.02,3.02,0,0,1,1.1.158Z" transform="translate(-1662.845 -334.586)" fill="#707070"/>
    <path id="Path_34570" data-name="Path 34570" d="M1893.964,312.189a3.581,3.581,0,0,1-1.729.361q-3.044,0-3.044-3.39v-6.847H1887.2v-1.586h1.992V297.9l1.856-.6v3.427h2.916v1.586h-2.916v6.524a2.706,2.706,0,0,0,.4,1.661,1.575,1.575,0,0,0,1.308.5,1.955,1.955,0,0,0,1.21-.383Z" transform="translate(-1752.924 -294.91)" fill="#707070"/>
    <path id="Path_34571" data-name="Path 34571" d="M2019.713,351.145h-1.856v-6.6q0-3.687-2.691-3.683a2.917,2.917,0,0,0-2.3,1.045,3.87,3.87,0,0,0-.909,2.638v6.6H2010.1V339.571h1.856v1.924H2012a4.185,4.185,0,0,1,3.8-2.195,3.554,3.554,0,0,1,2.908,1.225,5.473,5.473,0,0,1,1.007,3.54Z" transform="translate(-1866.588 -333.753)" fill="#707070"/>
    <path id="Path_34572" data-name="Path 34572" d="M2183.993,345.916h-8.169a4.337,4.337,0,0,0,1.037,2.984,3.6,3.6,0,0,0,2.736,1.052,5.692,5.692,0,0,0,3.593-1.285v1.744a6.721,6.721,0,0,1-4.036,1.1,4.884,4.884,0,0,1-3.855-1.578,6.47,6.47,0,0,1-1.4-4.434,6.326,6.326,0,0,1,1.533-4.4,4.912,4.912,0,0,1,3.8-1.7,4.355,4.355,0,0,1,3.517,1.473,6.128,6.128,0,0,1,1.24,4.081Zm-1.894-1.571a3.752,3.752,0,0,0-.774-2.5,2.651,2.651,0,0,0-2.119-.894,3,3,0,0,0-2.225.939,4.257,4.257,0,0,0-1.127,2.45Z" transform="translate(-2018.077 -333.846)" fill="#707070"/>
    <path id="Path_34573" data-name="Path 34573" d="M2351.535,342.282a2.261,2.261,0,0,0-1.4-.376,2.377,2.377,0,0,0-1.984,1.12,5.157,5.157,0,0,0-.8,3.051v5.9H2345.5V340.4h1.856v2.382h.045a4.022,4.022,0,0,1,1.21-1.9,2.743,2.743,0,0,1,1.819-.684,3.02,3.02,0,0,1,1.1.158Z" transform="translate(-2176.78 -334.586)" fill="#707070"/>
  </g>
  <g id="Group_41407" data-name="Group 41407" transform="translate(0.759 0)">
    <path id="Path_34574" data-name="Path 34574" d="M118.975,62.858a6.786,6.786,0,0,1-3.4.864,4.648,4.648,0,0,1-3.525-1.405A5.174,5.174,0,0,1,110.7,58.6a5.269,5.269,0,0,1,1.5-3.878,5.1,5.1,0,0,1,3.788-1.518,6.427,6.427,0,0,1,2.788.541v1.323a5.377,5.377,0,0,0-2.924-.782,3.639,3.639,0,0,0-2.8,1.18,4.93,4.93,0,0,0-.075,6.088,3.551,3.551,0,0,0,2.751,1.1,4.283,4.283,0,0,0,2.067-.473V59.325h-2.232V58.243h3.42Z" transform="translate(-110.7 -52.794)" fill="#707070"/>
    <path id="Path_34575" data-name="Path 34575" d="M247.132,99.513a3.346,3.346,0,0,1-2.57-1.022,3.775,3.775,0,0,1-.962-2.7,3.944,3.944,0,0,1,1-2.863,3.614,3.614,0,0,1,2.706-1.03,3.262,3.262,0,0,1,2.54,1,3.967,3.967,0,0,1,.909,2.773,3.923,3.923,0,0,1-.985,2.788A3.415,3.415,0,0,1,247.132,99.513Zm.09-6.629a2.2,2.2,0,0,0-1.774.767,3.135,3.135,0,0,0-.654,2.1,2.94,2.94,0,0,0,.661,2.037,2.25,2.25,0,0,0,1.766.744,2.127,2.127,0,0,0,1.736-.729,3.169,3.169,0,0,0,.609-2.082,3.236,3.236,0,0,0-.609-2.1A2.132,2.132,0,0,0,247.223,92.885Z" transform="translate(-233.612 -88.586)" fill="#707070"/>
    <path id="Path_34576" data-name="Path 34576" d="M364.765,58.562H363.6V47.8h1.165Z" transform="translate(-344.593 -47.8)" fill="#707070"/>
    <path id="Path_34577" data-name="Path 34577" d="M410.6,58.562h-1.165V57.33h-.03a2.926,2.926,0,0,1-4.682.428A3.994,3.994,0,0,1,403.9,55.1a4.326,4.326,0,0,1,.909-2.886,3.012,3.012,0,0,1,2.42-1.09,2.321,2.321,0,0,1,2.18,1.18h.03V47.8H410.6Zm-1.165-3.292V54.2a2.09,2.09,0,0,0-.579-1.488,1.956,1.956,0,0,0-1.473-.609,2.021,2.021,0,0,0-1.676.782,3.424,3.424,0,0,0-.609,2.157,3.089,3.089,0,0,0,.586,1.984,1.908,1.908,0,0,0,1.571.729,1.978,1.978,0,0,0,1.578-.706A2.674,2.674,0,0,0,409.431,55.271Z" transform="translate(-381.864 -47.8)" fill="#707070"/>
  </g>
</svg>
